<?xml version="1.0" encoding="UTF-8"?>
<svg id="Layer_2" data-name="Layer 2" xmlns="http://www.w3.org/2000/svg" viewBox="0 0 708.27 242.71">
  <defs>
    <style>
      .cls-1 {
        fill: #da2730;
      }

      .cls-2 {
        fill: #060909;
      }
    </style>
  </defs>
  <g id="Layer_1-2" data-name="Layer 1">
    <g>
      <path class="cls-2" d="M.05,11.26l.94-1.56C.44,4.81,2.17,1.84,6.98.69c1.43-.34,6.24-.97,6.95-.31.32.3.01,2.3,1.08,3.39s3.06.77,4.09,2.17c6.3,8.54,9.91,47.52,14.64,61.11.33.94.85,2.97,1.81,3.2,3.76.86,3.38-6.44,3.76-8.23,3.34-15.58,6.44-37.91,11.96-52.04,4.27-10.93,12.95-14.51,18.95-2.4,2.97,5.99.82,5.34.79,10.18-.08,12.82.16,26.05-.02,38.95-.19,14.29,1.35,31.2.04,45.04-1.37,14.59-17.06,16.9-16-1.01.64-10.91,3.01-21.86,2.02-33.01-.14-1.57-.82-2.95-1.03-4.48-5.07,2.42-1.41,8.86-5.75,12.74-2.33,9.53-2.23,23.62-5.48,32.52-1.6,4.4-8.58,4.54-12.14,2.6-6.63-3.62-5.46-18.14-6.86-25.13-.88-4.37-3.02-9.34-4.29-13.71-.63-2.17-1.09-8.58-2.43-9.57-2.65-1.96-3.83.65-4.1,3-1.49,13.31,2.44,24.66,3.09,37.07.45,8.61-5.47,12.1-13.3,9.24-4.79-1.75-2.9-8.73-3.07-12.09-.94-18.48-.64-37.1-.66-55.67,0-5.32.03-10.68,0-16-.02-2.81.81-7.07-1-9v-1c2.17-1.62,2.9-4.02,0-5v-2Z"/>
      <path class="cls-1" d="M.05,139.26c.17-1.15,1.15-4.72,1.57-5.97,1.66-4.94,11.74-4.88,12.37-3.92.3.46-.22,1.96.24,2.65s2.33.69,3.2,1.34c5.71,4.21,11.72,44.26,14.11,53.92.49,1.99,2.75,11.71,4.03,11.98,3.83.81,4.15-10.23,4.79-13.19,2.37-10.89,4.98-21.91,7.48-32.52,1.4-5.93,1.64-11.55,4.47-17.53,5.71-12.02,18.3-6.11,19.57,4,.31,2.5-.96,4.32-.89,6.7.56,20.15.29,40.88.11,60.99-.06,6.99.59,15.3-.05,22.04-.59,6.22-3.99,13.51-11.31,11.31-8.43-2.53-3.04-18.77-2.64-25.26.2-3.31.33-22.46-1.06-23.54-1.72-1.34-3.24,2.93-3.51,3.97-.73,2.78-1.59,6.07-2.21,8.8-2.45,10.83-3.54,22.11-5.47,33.04-3.52,2.65-10.16,3.44-13.79.68-3.99-3.03-3.36-13.78-4.28-18.72-1.56-8.33-4.03-16.6-6.2-24.8-.74-2.8-.85-5.46-4.03-4.98-.79.12-2.46,6.98-2.43,8.41.09,3.88.55,10.09.92,14.1.85,9.14,8.98,30.34-7.54,28.56-9.27-.99-5.12-14.37-5.42-20.62-1.18-24.39-.8-49.31-2.04-73.45v-1c1.91-1.56,3.56-4.6,0-4,.09-.98-.15-2.04,0-3Z"/>
      <path class="cls-2" d="M390.06,186.26c1.34,1.13,1.91.1,1.99-1.48.12-2.54.17-5.5,0-8.02-.55-8.25-1.89-17.83-2.09-25.99-.11-4.3,1.69-9.93,1.53-14.56,3.44-5.93,12.3-7.47,15.09.03,2.66,7.16,1.81,28.02,1.52,36.58-.27,8.06-2.13,17.99-2.13,25.95,0,9.29,2.32,20.46,1.14,30.05-.46,3.72-4.84,9.76-8.56,10.44-2.59.47-7.7.33-9.54-1.7-3.41-3.77-4.09-18.57-5.41-24.33-2.59-11.27-7.74-22.02-11.04-32.95-1.6,1.15-1.62,2.69-1.56,4.46.53,13.67,4.67,35.82,1.84,48.82-.62,2.85-2.84,7.48-6.07,7.39-18.28-.53-9.78-12.94-8.7-23.16,1.97-18.67-.5-40.29-1.02-59.01-.15-5.31-.6-13-.03-18.04,1.06-9.37,10.02-14.99,15.89-5.83l17.15,51.36Z"/>
      <path class="cls-2" d="M630.72,238.93c-2.98,2.99-10.39,3.14-13.91,1.31-1.06-.55-2.72-3.94-3.08-5.16-2.01-6.85,4.23-16.42,6.07-23.58,5.83-22.76,8.81-46.78,14.54-69.46,1.24-4.91,2.77-9.82,7.33-12.58,10.2,1.33,14.87-.71,17.93,10.74,3.43,12.82,5.03,28.87,7.73,42.27,1.42,7.02,2.55,14.01,3.97,21.03,1.53,7.56,5.24,16.54,5.76,24.27.64,9.39-6.97,14.88-14.95,8.92-5.91-4.41-2.58-18.63-10.52-19.48-3.37-.36-13.37-.82-15.01,2.09-3.13,5.55.43,13.32-5.87,19.63ZM653.01,202.22c1.44-5.33-1.34-10.07-1.89-14.53s-.05-9.25-1.11-13.89c-.29-1.29-.81-2.91-2.45-2.54-4.63,8.97-4.97,20.48-7.44,30.37.99,3.52,10.18.62,12.89.59Z"/>
      <path class="cls-1" d="M107.67,129.51c.88-.09,9.72.72,10.65.97,2.09.56,5.06,3.26,5.51,5.49,5.31,22.65,8.78,45.71,13.52,68.48.83,3.98,2.74,8.08,3.47,11.53.5,2.33,2.34,13.99,2.07,15.53-1.76,9.83-14.45,10.13-18.09,1.49-1.26-3-1.86-13.54-4.73-15.27-1.28-.77-12.49-.81-14.51-.46-6.43,1.11-3.91,11.01-5.79,16.21-.7,1.94-4.53,7.04-6.41,7.59-5.5,1.62-12.2.28-13.84-5.77-2.02-7.49,1.42-8.99,3.26-14.8,8.21-25.93,10.59-54.72,17.52-80.48.89-3.32,3.49-10.09,7.38-10.49ZM115.04,171.26c-4.57-3.26-5.72,15.82-6.05,17.44-.29,1.44-1.43,2.37-1.64,3.36-1.74,8.04-3.84,12.85,6.96,10.95,8.65-1.52,3.53-8.56,2.83-14.35-.32-2.64-.59-16.33-2.1-17.4Z"/>
      <path class="cls-2" d="M323.83,89.48c-2.13-1.79-15.45-1.96-17.77.29-3.73,3.62.1,14.14-6.51,20.49-.73.7-3.42,2.62-4.25,2.84-1.01.27-8.31-.86-9.26-1.33-3.29-1.61-4.33-8.4-3.76-11.78s2.72-5.13,3.5-7.5c8.35-25.64,10.6-54.58,17.75-80.25,2.62-9.41,4.36-12.35,14.94-10.9,5.79.8,8.35,4.82,9.89,10.1,3.31,11.32,4.5,27.02,6.94,39.06,1.74,8.57,3.42,17.21,5.2,25.8,1.56,7.55,4.89,15.81,5.47,23.59.92,12.32-13.28,13.86-17.71,4.65-1.4-2.92-2.56-13.48-4.44-15.06ZM315.06,43.26l-5.94,29.37c.65,2.27,8.43,2,10.44,1.64,5.68-1.03.98-11.22.56-14.58-.32-2.5.35-20.02-5.06-16.43Z"/>
      <path class="cls-1" d="M310.68,129.51c1.42-.14,10.77.92,12.12,1.5,2.4,1.03,3.88,3.9,4.74,6.26,4.21,11.55,4.63,29.87,7.77,42.23,2.15,12.16,6.03,24.53,8.51,36.49.56,2.67,2.53,13.81,2.24,15.7-.75,4.87-6.13,8.49-11.04,7.1-10.89-3.08-7.29-18.26-11.94-21.07-1.28-.77-12.49-.81-14.52-.46-5.52.95-4.13,8.26-4.76,12.24-1.42,8.89-6.92,13.57-16.04,11.54-4.59-1.02-6.26-8.06-5.67-12.23.38-2.7,2.78-5.52,3.7-8.33,8.46-26,10.67-54.34,17.74-80.26.92-3.39,3.19-10.32,7.16-10.71ZM318.04,171.26c-4.46-3.22-5.88,16.4-6.24,18.25-.55,2.88-5.3,12.21-1.12,13.6,3.41,1.14,7.82-.87,11.33-.9,1.36-5.01-1.33-9.31-1.89-13.53-.37-2.76-.25-16.11-2.08-17.43Z"/>
      <path class="cls-1" d="M165.27,190.48c-3.54,3.68-.55,11.2-.22,15.28.24,2.98-.24,6.02,0,9,.4,5.09,3.79,19.75.72,23.22-2.9,3.28-7.65,3.77-11.22,1.27-7.77-5.44-3.67-11.99-3.45-19.45.63-21.45-1.49-42.71-2.09-64-.12-4.13-.72-19.16.2-21.9,1.76-5.28,17.48-3.6,22.39-3.6,1.81,0,3.47-.9,4.96-.89,25.04.25,37.35,29.66,22.94,49.78-1.22,1.7-4.32,3.72-4.93,5.06-1.17,2.56.16,11.94.71,15.27,1.18,7.12,4.79,16.39,5.71,23.29,1.19,8.96-2.7,21.61-13.29,15.29-1.65-.99-4.32-3.47-4.63-5.36-1.29-7.83-.42-16.27-1-24-.2-2.67-1.76-17.47-2.44-18.56-1.03-1.63-12.72-1.4-14.34.28ZM163.05,146.76v27c0,4.31,16.39,2.22,19.74.74,11.3-5,10.27-26.06-1.69-29.79-3.08-.96-17.1-1.51-18.05,2.05Z"/>
      <path class="cls-2" d="M476.85,192.07c-.18.25-4.64,3.06-5.3,3.18-6.96,1.26-29.61-2.43-33.58,2.42-2.43,2.96-.02,6.96.09,10.09.14,3.93-1.15,16.13,1.98,18.07,1.28.79,15.47-1.49,18.47-1.61,3.32-.14,12.27-.54,14.86.23,2.84.84,5.51,8.26,4.2,10.8-2.48,4.83-9.04,5.73-13.97,6.06-9.54.63-24.63.75-34.09,0-11.04-.87-9.77-11.93-9.46-20.55.07-1.92,1-3.79,1.05-5.95.56-24.29-2.98-50.27-1.1-74.1.49-6.19,5.59-9.84,11.55-10.45,4.6-.47,7.96.94,11.97,1.05,6.68.18,24.34-1.35,29.12.88,5.47,2.56,7.8,6.62,5.18,12.33-3.05,6.65-14.74,2.9-20.25,2.74-3.16-.09-19.02-.63-20.07.94-1.52,2.29.81,15.27.61,19.61-.22,4.69-3.92,11.72,3.41,12.5,8.8.94,26.3-3.7,32.96,1.04,2.15,1.53,3.67,8.89,2.39,10.72Z"/>
      <path class="cls-2" d="M99.05,92.76c.05.32,1.32,3.29,1.5,3.5,2.3,2.77,16.88-.77,21-1.01,3.71-.21,12.19-.83,14.53,1.47,4.67,4.6,4,11.07-1.48,14.58-2.89,1.86-6.71.63-10.06.94-11.52,1.06-23.4,1.24-35.02.03-3.93-.41-6.78-2.57-7.43-6.57-1.02-6.32-.02-11.22,0-16.91.1-24.73-.6-49.42-1.1-74.02-.13-6.16,3.17-11.51,9.61-12.48,12.72-1.92,27.93,2.53,41,.9,12.97,3.23,11.15,17.89-3.04,17.07-8.39-.49-18.25-3.61-27.02-2.02-.84.15-2.49.81-2.49,1.51v30c0,1.22,4.14,2.38,5.47,2.53,9.07.97,23.19-4.05,30.84.16,1.95,1.07,3.9,6.19,3.71,8.29-.13,1.39-5.1,6.52-5.53,6.52h-33c-.11,0-1.5,1.39-1.5,1.5,0,6.75-1,17.95,0,24Z"/>
      <path class="cls-2" d="M569.27,190.48c-3.56,3.7-.53,10.37-.22,14.28.66,8.23,1.51,16.76,2,24.99.34,5.59.85,7.92-4.77,10.24-3.69,1.52-4.46,1.71-7.73-.73-6.74-5.02-3.65-6.16-3.45-12.45.46-14.38.33-29.79-1.09-44l-.8-48.9c1.76-5.28,17.48-3.6,22.39-3.6,1.81,0,3.47-.9,4.96-.89,9.18.09,17.3,4.72,23.02,11.82,8.93,11.1,7.87,26.66-.07,37.96-1.21,1.72-4.31,3.69-4.93,5.06-1.15,2.53.15,12,.71,15.27,1.24,7.2,4.76,16.19,5.71,23.29.77,5.77.75,11.05-3.9,14.95-5.3,4.45-12.87.07-13.98-6.07-2.39-13.31.09-28.09-3.5-41.5-1.04-1.67-12.73-1.39-14.33.27ZM567.05,146.76v27c0,4.54,16.52,1.95,19.72.72,11.38-4.37,10.38-25.57-.99-29.45-3.28-1.12-17.7-2.12-18.73,1.73Z"/>
      <path class="cls-2" d="M520.28,198.02c-2.04-1.98-1.88-8.38-1.24-11.07.12-.52,4.27-3.04,4.96-3.25,6.7-2.11,15.33-.13,18.87,6.25-.55,7.28-1.1,14.51-.87,21.85.17,5.55,2.05,12.06,1.03,17.94-.14.82-5.56,7.75-5.99,8.01-.38.23-7.49,2.25-8.54,2.46-2.65.51-9.31,1.21-11.98,1.11-6.47-.24-21-4.92-23.95-11.09-.93-1.96-4.02-13.91-4.46-16.54-2.1-12.44-1.73-33.07-1.11-45.98.25-5.31.93-15.95,2.29-20.71,2.68-9.46,13.29-18.54,23.3-18.78,14.61-.36,27.82,11.16,29.42,25.64,1,9.01-7.62,11.3-13.5,5.44s-4.88-17.92-16.73-14.8c-4.87,1.28-6.4,7.76-6.77,12.22-1.15,13.72-.76,35.13,0,49.09.19,3.43.77,10.46,1.48,13.52,2.79,11.95,19.24,10.63,20.56-3.57.24-2.58.48-13.05-.13-14.87-.83-2.49-5.57-1.82-6.64-2.86Z"/>
      <path class="cls-2" d="M259.31,79.52c2.05-2.05,7.99-2.99,10.73-1.75,7.43,3.37,3.86,16.75,1.51,22.49-3.26,7.95-16.67,13.73-24.97,14.05-9.1.34-22.71-6-26.6-14.5-4.37-9.54-3.37-18.13-3.94-28.06-.81-14.2-2.75-35.07-.93-48.92.64-4.84,4.99-13.18,8.98-16.02,11.36-8.09,26.76-8.26,37.99-.1,6.82,4.95,12.35,19.49,6.53,26.62-6.19,7.58-13.83-1.37-16.78-7.37-1.5-3.05-.48-6.82-4.74-8.26-6.76-2.29-13.2-.47-15,7.11-.24,1.01-1.11,7.13-1.05,7.9.12,1.67,1.59,2.88,1.74,4.18.28,2.34-.93,8.34-.79,11.92.34,8.86,1.31,18.11,2.05,26.95.59,7.05-.54,19.4,8.71,21.29,2.22.45,8.43.68,10.29-.27,5.29-2.7,2.72-13.73,6.25-17.25Z"/>
      <path class="cls-1" d="M268.77,161.99c-1.15,1.37-4.39,2.38-6.22,2.38-10.69,0-9.02-15.4-16.03-18.09-6.18-2.37-11.98-.71-14.03,5.92-.38,1.23-1.37,7.45-1.35,8.6.05,1.83,1.76,3.07,1.81,4.9.36,15.18-1.21,31.76,1.14,47,.15.98,2.13,7.78,2.48,8.52,2.05,4.38,8.63,5.38,12.89,4.91,12.04-1.34,3.18-18.16,14.13-19.84,10.18-1.56,12.23,6.97,10.17,15.17-2.28,9.04-5.07,13.27-13.41,17.58-10.68,5.52-21.71,4.66-31.79-1.83-13.88-8.93-11.75-23.18-12.52-37.48-.8-14.83-2.54-32.17-1.02-47.01,3.41-33.27,56.86-28.77,56.06.98-.04,1.59-1.4,7.17-2.33,8.27Z"/>
      <path class="cls-2" d="M189.34,52.54c-2.84,3.23-5.77,12.14-8.11,16.39-4.79,8.67-12.23,15.38-10.18,26.33,3.47-.18,7.03.25,10.51,0,7.46-.55,22.17-5.77,22.55,6.53.32,10.48-17.66,8.42-24.61,8.51-5.85.08-14.52.61-19.98,0-3.61-.41-9.36-3.02-10.33-6.73-.14-.55,1-8.21,1.32-9.34,1.39-4.94,14.01-29.74,17.09-33.91,2.85-3.85,2.49-2,5.24-7.76,3.47-7.27,14.29-23.99,14.26-30.84-.03-9.93-18.12-.57-22.56-.38-1.39.06-9.77-1.5-10.82-2.04-.48-.25-2.58-5.73-2.68-6.61-.83-7.01,7.9-10,13.46-10.46,7.77-.65,28.71-.76,35.59,1.49,4.47,1.46,6.21,6.73,5.99,11.02-.41,7.68-5,18.84-8.24,25.83-4.14,8.94-2.83,5.52-8.51,11.98Z"/>
      <path class="cls-2" d="M404.83,95.48c2.31,2.22,1.4,9.3-1.07,11.48-1.87,1.65-8.95,3.96-11.48,4.05-2.02.07-3.71-.82-5.68-.81-5.02.01-22.1,1.01-25.1-.9-8.63-5.47-3.03-23.21-2.41-31.51,1.49-19.68-.18-41.41-1.04-61.04-.4-9.09.19-20.04,12.01-15.01,2.83,1.21,4.29,2.81,5.32,5.68,3.2,9,.2,21.83.03,31.49-.22,12.03-.18,23.82-.39,35.78-.05,3.04-.43,17.23.48,18.61,1.59,2.38,6.8.05,9.06-.06,4.08-.21,17.57-.38,20.28,2.23Z"/>
      <path class="cls-2" d="M708.05,138.26c.21,2.23-.06,4.71,0,7,.17,6.18.97,21.64-2.1,26.4-1.96,3.04-9.92,4.39-13.4,4.6-9.86.61-17.25-5.53-17.43-15.61-.03-1.94.97-3.75.98-5.85.03-5.29-1.11-16.89,1.08-20.91,3.09-5.68,12.4-6.39,18.14-5.4,1.47.25,9.66,3.54,10.69,4.31,1.77,1.32,1.85,3.49,2.04,5.46ZM685.78,132.48c-1.01.28-4.75,2.89-5.22,3.78-2.3,4.44-2.12,26.39-.26,31.25,2.34,6.11,15.27,5.84,20.05,3.53,5.31-2.56,3.55-15.98,3.71-21.3.06-1.91,1.01-3.84,1.08-5.98.33-10.44-10.65-13.67-19.35-11.29Z"/>
      <path class="cls-2" d="M684.05,137.76c.18-.62,1.55-1.64,2.41-1.47,4.48,1.61,10.67-.29,13.07,4.98,2.67,5.87-2.13,8.28-2.55,12.46-.49,4.77,2.18,8.87,2.06,13.53-6.8.91-4.59-3.79-5.1-8.39-.55-5.03-.34-6.45-5.9-5.61-1.54,5.59,4.92,15.19-4,14v-29.5ZM688.05,140.25c.39,3.56-1.85,10.47,3.42,10.01,8.16-.71,5.29-12.32-3.42-10.01Z"/>
    </g>
  </g>
</svg>