<?xml version="1.0" encoding="UTF-8"?>
<svg id="Layer_2" data-name="Layer 2" xmlns="http://www.w3.org/2000/svg" viewBox="0 0 322 334">
  <g id="Layer_1-2" data-name="Layer 1">
    <path d="M164.47,307.41l3.29,1.78-10.38,20.6c-1.94,3.84-6.51,5.33-10.21,3.32l-3.29-1.78,10.38-20.6c1.94-3.84,6.51-5.32,10.21-3.32Z"/>
    <path d="M140.91,305.9l2.94,2.35-13.67,18.41c-2.55,3.44-7.3,4.08-10.61,1.43l-2.94-2.34,13.68-18.42c2.55-3.44,7.29-4.07,10.6-1.43Z"/>
    <path d="M117.97,300.17l2.5,2.84-16.55,15.67c-3.08,2.92-7.87,2.7-10.69-.5l-2.5-2.84,16.55-15.67c3.09-2.92,7.87-2.7,10.69.5Z"/>
    <path d="M96.33,290.4l1.98,3.25-18.91,12.46c-3.53,2.32-8.21,1.24-10.45-2.42l-1.98-3.25,18.91-12.45c3.53-2.32,8.21-1.24,10.45,2.42Z"/>
    <path d="M76.65,276.87l1.41,3.55-20.71,8.86c-3.87,1.65-8.29-.26-9.88-4.26l-1.41-3.56,20.71-8.86c3.86-1.65,8.29.26,9.88,4.27Z"/>
    <path d="M59.54,260.01l.8,3.75-21.89,4.99c-4.08.93-8.12-1.75-9.01-5.98l-.8-3.76,21.88-4.99c4.09-.93,8.12,1.75,9.02,5.98Z"/>
    <path d="M45.51,240.32l.16,3.84-22.39.98c-4.18.18-7.7-3.18-7.88-7.51l-.15-3.84,22.39-.97c4.17-.18,7.7,3.18,7.87,7.51Z"/>
    <path d="M34.99,218.41l-.49,3.81-22.21-3.07c-4.14-.57-7.05-4.52-6.5-8.81l.49-3.81,22.21,3.07c4.14.57,7.05,4.52,6.5,8.82Z"/>
    <path d="M28.3,194.93l-1.12,3.66-21.36-7.03c-3.98-1.31-6.19-5.72-4.93-9.85l1.12-3.67,21.36,7.03c3.99,1.31,6.19,5.72,4.93,9.85Z"/>
    <path d="M25.64,170.6l-1.72,3.41-19.86-10.77c-3.7-2.01-5.13-6.75-3.2-10.59l1.72-3.41,19.86,10.77c3.7,2.01,5.13,6.75,3.2,10.59Z"/>
    <path d="M27.09,146.17l-2.26,3.05-17.75-14.18c-3.32-2.64-3.93-7.57-1.38-11.01l2.26-3.05,17.75,14.18c3.31,2.65,3.93,7.57,1.38,11.01Z"/>
    <path d="M32.61,122.37l-2.74,2.59-15.1-17.16c-2.82-3.2-2.61-8.17.48-11.09l2.74-2.59,15.11,17.16c2.82,3.2,2.6,8.17-.49,11.09Z"/>
    <path d="M42.04,99.92l-3.14,2.06-12-19.62c-2.24-3.66-1.2-8.51,2.33-10.83l3.13-2.06,12.01,19.62c2.24,3.66,1.19,8.51-2.33,10.83Z"/>
    <path d="M55.07,79.51l-3.43,1.46-8.53-21.49c-1.6-4.01.24-8.6,4.1-10.25l3.43-1.47,8.54,21.49c1.59,4-.25,8.59-4.11,10.25Z"/>
    <path d="M71.33,61.76l-3.62.83-4.82-22.7c-.89-4.24,1.69-8.42,5.77-9.35l3.62-.83,4.81,22.7c.9,4.23-1.68,8.42-5.76,9.35Z"/>
    <path d="M90.31,47.21l-3.7.16-.94-23.22c-.18-4.33,3.06-7.99,7.24-8.17l3.7-.16.94,23.22c.18,4.33-3.07,7.99-7.24,8.17Z"/>
    <path d="M111.44,36.29l-3.68-.51,2.97-23.04c.55-4.3,4.35-7.31,8.49-6.74l3.68.51-2.97,23.04c-.55,4.3-4.35,7.31-8.49,6.74Z"/>
    <path d="M134.07,29.35l-3.53-1.16,6.77-22.15c1.27-4.13,5.52-6.42,9.5-5.11l3.54,1.16-6.78,22.15c-1.26,4.13-5.51,6.42-9.5,5.11Z"/>
    <path d="M157.52,26.59l-3.28-1.78,10.38-20.59c1.93-3.84,6.51-5.33,10.21-3.32l3.28,1.78-10.38,20.6c-1.93,3.84-6.51,5.32-10.21,3.32Z"/>
    <path d="M181.08,28.1l-2.94-2.35,13.68-18.41c2.54-3.44,7.3-4.08,10.6-1.43l2.94,2.34-13.67,18.42c-2.55,3.43-7.3,4.08-10.61,1.43Z"/>
    <path d="M204.03,33.83l-2.5-2.84,16.54-15.67c3.09-2.92,7.88-2.7,10.69.5l2.5,2.84-16.54,15.67c-3.09,2.93-7.87,2.7-10.69-.5Z"/>
    <path d="M225.67,43.6l-1.99-3.24,18.92-12.46c3.53-2.32,8.21-1.24,10.44,2.42l1.99,3.25-18.92,12.46c-3.53,2.32-8.2,1.24-10.44-2.42Z"/>
    <path d="M245.35,57.12l-1.42-3.55,20.72-8.86c3.86-1.66,8.28.25,9.87,4.26l1.42,3.55-20.72,8.86c-3.86,1.65-8.28-.26-9.87-4.27Z"/>
    <path d="M262.46,73.99l-.8-3.75,21.88-4.99c4.09-.93,8.13,1.75,9.02,5.98l.8,3.76-21.89,4.99c-4.08.93-8.11-1.75-9.01-5.98Z"/>
    <path d="M276.49,93.67l-.16-3.84,22.39-.98c4.18-.18,7.7,3.18,7.88,7.51l.15,3.84-22.39.97c-4.17.18-7.7-3.18-7.87-7.51Z"/>
    <path d="M287.01,115.59l.49-3.81,22.21,3.08c4.14.57,7.05,4.52,6.5,8.81l-.5,3.81-22.21-3.08c-4.14-.57-7.05-4.52-6.49-8.82Z"/>
    <path d="M293.7,139.07l1.12-3.66,21.36,7.02c3.98,1.31,6.19,5.72,4.92,9.85l-1.12,3.67-21.36-7.03c-3.98-1.31-6.18-5.72-4.92-9.85Z"/>
    <path d="M296.36,163.39l1.72-3.41,19.86,10.77c3.7,2,5.13,6.75,3.2,10.59l-1.72,3.41-19.86-10.77c-3.7-2.01-5.13-6.75-3.2-10.59Z"/>
    <path d="M294.91,187.83l2.26-3.05,17.75,14.18c3.31,2.64,3.93,7.57,1.38,11l-2.26,3.05-17.75-14.18c-3.32-2.65-3.93-7.57-1.38-11.01Z"/>
    <path d="M289.39,211.63l2.73-2.59,15.11,17.16c2.82,3.2,2.6,8.16-.48,11.09l-2.74,2.59-15.11-17.16c-2.82-3.2-2.6-8.16.49-11.09Z"/>
    <path d="M279.96,234.08l3.13-2.06,12.01,19.62c2.24,3.66,1.19,8.51-2.33,10.83l-3.13,2.06-12.01-19.62c-2.24-3.66-1.19-8.51,2.33-10.83Z"/>
    <path d="M266.93,254.49l3.42-1.47,8.54,21.49c1.59,4.01-.24,8.6-4.11,10.24l-3.43,1.47-8.53-21.49c-1.6-4,.24-8.59,4.11-10.24Z"/>
    <path d="M250.67,272.24l3.62-.83,4.82,22.7c.89,4.23-1.69,8.42-5.77,9.35l-3.62.83-4.81-22.7c-.9-4.24,1.68-8.42,5.76-9.35Z"/>
    <path d="M231.69,286.79l3.7-.16.94,23.22c.18,4.33-3.07,7.99-7.24,8.17l-3.71.16-.93-23.22c-.18-4.33,3.07-7.99,7.24-8.17Z"/>
    <path d="M210.56,297.71l3.67.51-2.96,23.04c-.55,4.3-4.36,7.31-8.5,6.74l-3.67-.51,2.96-23.04c.56-4.3,4.36-7.32,8.5-6.74Z"/>
    <path d="M187.93,304.64l3.53,1.16-6.77,22.16c-1.27,4.13-5.52,6.42-9.5,5.11l-3.54-1.16,6.78-22.15c1.26-4.13,5.51-6.42,9.5-5.11Z"/>
    <path d="M161,166.49l-52.75-54.71,8.84-9.17,43.91,45.55,43.91-45.55,8.84,9.17-52.75,54.71Z"/>
    <path d="M161,207.59l-52.75-54.72,8.84-9.17,43.91,45.55,43.91-45.55,8.84,9.17-52.75,54.72Z"/>
    <path d="M161,248.68l-52.75-54.71,8.84-9.16,43.91,45.55,43.91-45.55,8.84,9.16-52.75,54.71Z"/>
  </g>
</svg>