<?xml version="1.0" encoding="UTF-8"?>
<svg id="Layer_2" data-name="Layer 2" xmlns="http://www.w3.org/2000/svg" viewBox="0 0 450.02 338.08">
  <defs>
    <style>
      .cls-1 {
        fill: #be7860;
      }

      .cls-2 {
        fill: #f3e3d7;
      }
    </style>
  </defs>
  <g id="Layer_1-2" data-name="Layer 1">
    <g>
      <path class="cls-2" d="M200,1.09c.22,1.01,1.16.94,2,1,21.19,1.53,38.81-4.62,60.69,4.81,6.31,2.72,8.15,4.43,11.31,10.19l-7-4.99c2.03,1.04,4.34,14.01,2.5,14-1.19,0-.08-3.62-.51-4.02-.13-.12-2.23,1.59-2.86-.62-.37-1.3.12-4.02-.14-4.37-.09-.12-2.91-.12-2.99,0-.23.37-1.68,7.28-1.94,8.57-.37,1.9.29,4.07-.04,5.8-.11.6-3.96.96-2.02,2.63,1.5,1.29,5.93-2.54,7-4-4.62.32.41-4.85,1.99-6,.42,2.64-.55,4.04-1.99,6,1.9-.13,3.2-.94,5-.99l-6.99,5.98c2.36-.44,2.4,2.65,3.94,3.45.18.09,3.91.72,4.04.57.53-.61-1.1-4.23,1-4-.62,4.66,2.13,11.6-2.98,13.99l-2-5.99c.74,8.35.01,7.95-6.03,11.51-.57.34-3.81.89-1.97,2.48,2.27,1.96,12.3-8.76,12.99-8,1.65,1.83-3.97,4.62-1.98,6.01.27.19,3.38-3.17,1.98,3.32-.18.83-1.78.18-2.06,2.11-.13.9-.53,3.88,1.07,3.56l1-3.99c.31,4.11.32,7.01-2,10.49.16,1.25,1.77-.66,2-.5.42.28-.28,8.39,0,10.01-1.65-.42-1.03-4.17-1.49-6.04-.25-1.01-1.17-3.49-2.5-1.95-.24.28.88,6.28,1.08,7.42.66,3.74,1.68.81.23,5.38-.35,1.09-.14,2.75-.38,3.16-.06.11-1.9-1.07-2.47-.06-1.08,1.92-.48,6.57-3.46,8.6,1.56,1.99,1.6.25,2.23-.8,1.14-1.89,2.24-4.54,2.78-6.7,2.16-.08.44,4.64,1,5,.17.11,1.81-1.13,1.99-1.01,2,8.23-1.49,16.4,1.02,24.5l-3.01-1.48.99,11c-3.46,5.61-4.74,6.76-11,9-1.24.44-2.57.09-3,2-.28.12-.7-.11-1,0-1.16-1.02-2.52-1.91-1.06-3.53,1.95-2.16,4.58-.44,5.06-2.46-1.89.2-4.19-1.73-5.51-2-.73-.15-.19,3.79-3.2,4.77-.75.25-8.02,1.53-8.29,1.21-.16-.19,1.84-4-2.36-2.86-1.04.28-3.42,3.52-3.65,4.39-.06.22,4.34.86,1.01,2.98-4.69,2.98-25.8,1.2-31.86-.13-7.95-1.74-11.02-3.94-17.13-8.37,2.81.7,1.89-1.82,3.42-3.05,2-1.62,5.95-1.54,7.58-4.46l-6.49.51c-1.3-.35,1.03-2.46.49-3-1.97-1.98-2.08,4.05-3.99,1.99-.2-.21-.18-5.45.12-5.86,1.74-2.39,4.92.57,6.41.83,3.62.62,8.84-1.75,8.46,2.03-3.06,3.08-2.89,3.85-5,7,.1-.12,2.89-1.12,2.99-1s.11,2.89,0,3c-.76.76-4.57-.1-3-2-.43.64-4.26,2.28-2.99,3.99.3.4,7.3.77,8.36.7,1.14-.08,2.11-1.26,3.27-1.43,1.01-.15,2.01.74,2.78.76,1.14.04-.15-2.48,1.57-2.02.22,1.01-.31,3.56.01,4,.12.16,3.85.12,3.99-.01.73-.67-3.44-7.64-4-9-.18-.44-1.11-2.89-1-2.99.56-.51,2.26,1.41,2.97.51-2.3-4.27-.03-1.53,1.33-1.82,1-.21,1.77-1.39,3.17-1.54,3.08-.34,6.13.38,9.15.73,1.1.13,3.61.89,3.37-.88-5.46-2.02-21.49.12-25.05-3.46-2.04-2.05-2.48-6.71-5.45-8.55l1.83,7.82,1.67,1.16c-8.65,3.06-11.1-.83-17.05-5.46-1.11-.86-3.08-1.1-3.71-1.77-.57-.59-2.08-6.73-2-7.35.14-1.09,2.35-1.12,2.64-1.54.11-.16-.79-2.13-.5-3.89.28-1.67,1.03-3.88,1.5-5.66s-.78-2.8,2.12-2.34v21c1.44.2,1.55-2.73,1.72-3.78.29-1.75.41-3.46.29-5.22l2.98,3.99-3.97-13.51c2.49.09,4.27,2.59,6.69,3.31.85.25,4.29.69,4.3-.3,0-.75-3.98-1.03-5.23-1.58-1.03-.45-2.46-3.13-3.49-3.91-1.14-.87-3.45-.35-3.28-2,5.83-1.51,10.22-7.02,13.98-11.52-2.16-.23-4.07,3.98-5.49,4.51-.98.37-.01-2.39-.99-1.99-1.39.55-1.11,2.87-1.81,3.69-1.05,1.22-4.18,2.33-5.2,4.3l-1.49-3.99c.08,1.1-.63,5.7-1.04,5.98-1.87,1.3-8.13-2.69-3.47-3.47.37-.06,1.22.78,1.49.49,1.32-1.41-5.71-5.21,1-5.49l-1.01-2.5c-1.3-.57-1.05,4.18-2.99,1.99-.7-.79.11-2.82.81-3.96.09-.15,1.15-.07,1.12-.48-.36-4.64-3.83-3.27-4-4.11-.49-2.4.46-6.08.02-8.9-.58-3.75-3.36-7.7-1.94-12.55,2.25,1.11,3.6,3.45,5.48,5.02s5.16.69,4.52,4.98c6.17-4.32-2.88-4.7-4.4-7.98-1.76-3.79.8-11.14.46-13.41-.11-.71-2.09-.49-2.08-1.19.02-.98,1.21-1.95.57-3.4-.71-1.59-5.12-4.4-6.09-7.09-.73-2.02.61-3.74.49-3.89-.26-.32-1.63.16-1.96-.04-.27-.17-2.62-4.94-2.78-5.72-3.11-14.96,18.43-17.15,28.78-14.28ZM192,8.08c.2-.19-.78-3.71-1.01-3.99-1.37-1.65-1.71,6.57,1.01,3.99ZM197.33,6.78c-.65-1.21.37-2.96-1.32-2.68-.35,2.95-.09,5.79,2.98,7,1.24-3.54-1.28-3.6-1.66-4.31ZM215,8.08c.51-.41-1.97-2.8-3-1.98-.51.41,1.97,2.8,3,1.98ZM218.71,10.38c-.1-.1-3.34-1.92-2.22-.3l3.95,4.06,4.55,7.93c-.97-3.6-3.7-9.12-6.29-11.7ZM202,12.09c-1.25.21-4.15-.89-3.99.99,1.64-.71,5.76,2.23,5.99,2.01,1.81-1.84-1.81-1.75-1.99-3,10.48-1.78,1.08-2.85,0-2-.08.06-.06,1.53,0,2ZM199.99,15.1c-2.2-1.54-4.97.32-4.99,2.99l4.99-2.99ZM181.98,15.1c-.68-.56-2.66-.16-1.97,1.48,1.07,2.56,7.9,6.51,10.99,6.5-1.18-4.36-4.94-2.89-5.81-3.25-.57-.24-2.99-4.55-3.21-4.73ZM190,15.1c-.12-.1-2.96-.41-3,.49,1.28,2.75,3.45-.12,3-.49ZM262,15.1c-2.09-.28-2.27-.1-1.99,1.99l1.99-1.99ZM217,16.1c-2.38-.26-4.53.08-6.82.71-1.77.49-2.6-.33-2.17,2.28l8.99-2.99ZM198.99,22.08c.57-1.19-.61-2.27-1.5-2.98-.43,1,1.03,3.95,1.5,2.98ZM202.99,26.09c.46-.53-1.3-6.82-2.98-7-.39,1.55,1.04,3.25,1.06,4.43.02,1.12-2.51-.17-2.06,1.55,1.21-.46,3.85,1.17,3.99,1.01ZM196,20.09c-2.82-2.78-2.82,7.77,0,4.99.18-.17.18-4.82,0-4.99ZM234,22.09c-.25-.25-6.98-.66-6.99.99,1.24-.57,9.97,1.99,6.99-.99ZM218,26.09c1.37-.19,4.99.94,4.99-.99-1.74.53-5.85-3.03-6.99-2.01-1.49,1.34,1.37,2.05,2,3-1.03.15-3.61.99-2.99,1.98.04.07.9-.18,1.57.44.62.57,1.88,3.13,3.42,1.58-.84.58-1.67,2.84-3.7,2.8-5.67-.11-11.02,1.74-16.72,1.11-.96-.1-3.75-.44-3.57-1.9,1.36-.34,5.38,1.59,5.99.99.5-.49-.03-4.45-1.5-4.99-.87-.32-.07,1.77-1.12,2.03-2.22.56-8.57-1.09-8.39-4.03-1.75-.52-.48,2.42-1.49,1.99-.44-.19-.87-1.22-2-1.49-2.16-.51-5.11-.48-7.51-1.5.6,3.31,6.6,4.77,7.51,6.03.69.95.28,2.62.51,2.97s6.1-1.64,7.98,0c.07,1.48-4.44,1.67-5.35,1.63-.8-.03-2.24-.32-2.91-.67-.73-.38-1.05-3.68-2.72-1.97-1.08,1.1,1.12,12.49,1,14.99,1.62.38.41-1.51,1.78-1.97.76-.26,1.84.13,2.22-.03.49-.21-1.39-3.48-1.01-3.98.16-.21,3.46-.63,4-1.02,1.31-.95-3.54-.65-1.97-2.97.09-.14,2.23-.32,2.57-2.06l6.92,2.05-1.5-2c11.14.95,18.12,1.29,25.51-7.99,1.04-1.3,1.52-2.57-.5-1.49-.45,1.96-2.54,2.46-4.02,3.47,1.8-1.82-1.45-1.95-1.75-2.23-.58-.55-.11-1.55-.25-1.77ZM258.99,30.09l1-6.99c-1.36-.06-2.04,3.23-2.29,4.26-.39,1.63-.87,2.04,1.28,2.73ZM237.33,27.73c-.63-.64-.98-3.09-2.31-2.15.25,1.76,8.73,10.19,6.98,11.5-.94.71-6.83.87-8.49,1.03-1.95.19-2.93-.92-2.5,1.97l26.99-5.01c.17-1.84-3.29-1-4.37-.87-2.35.29-8.66,2.67-9.13,2.65-1.93-.1-3.28-5.18-4.26-6.51-1.1-1.51-1.96-1.67-2.9-2.61ZM209,30.08l-1.99-1.99c-.28,2.09-.1,2.27,1.99,1.99ZM262,35.1l-20.24,5.05c-2.5,2.18-3.96,3.45-6.23,5.96-.61.68-2.18.77-2.43,1.13-.41.58,1.43,12.33-1.6,13.84-1.91.95-1.4-.94-1.1-2.1.36-1.38,2.41-7.13,1.61-7.89-.41-.39-9.03.64-10.27,1.05-.88.29-.68,1.76-1.4,1.93-1.61.38-3.62-.17-5.32.02.17,1.43,4.38,1.7,5.62,1.87,1.17.16,4.22-.03,4.38.12.6.55-.91,3.88-1.01,4.99-1.67.44-.42-1.79-1.61-2.05-2.29-.5-4.91,1.22-7.61.88-2.97-.37-7.05-3.27-9.49-3.63-2.09-.31-4.03,1.81-5.78-1.19-.32,6.22-3.71.37-7.49,1.49,3.2,1.88,12.22,6.32,15.57,6.45,4.95.19,12.65-.9,17.88-1,5.51-.1,11.04.18,16.54.04-.57-3.11-3.83-.84-4-.98-.43-.36-2.17-10.24-1.58-11.06,1.8-2.45,6.32-.72,6.57-.96.44-.43-1.44-2.77-.58-4,1.57-2.24,6.61-2.36,8.56-3.57.72-.45,4.57-6.86,5.59-1.42.22,1.19-1.07,6.56,1.44,3.99.26-.27-.33-3.89.15-5.35.58-1.75,3.45-1.75,3.85-3.64ZM214.5,42.09c6.57.59,13.85-.43,20.5,0,.22-1.76-2.26-.95-3.49-1-8.24-.35-15.82.32-23.99-2.03-2.91-.27-.93,1.61.19,1.82,1.76.33,5.35,1.08,6.79,1.21ZM262,39.09c-1.09-1.09-3.08.9-1.99,1.99s3.08-.9,1.99-1.99ZM199,42.08c-2.09-2.57-4.27,3.81-4,4,.17.12,3.87,1.17,4,1.01.16-.19.16-4.81,0-5ZM254.99,73.08l1-6.99c-1.51.07-3.06,6.94-1,6.99ZM264.99,78.09l-1.34-4.15-5.64-7.84,2.33,6.19,4.66,5.8ZM231.99,91.08l.68-9.35-2.66-7.65c-1.06,4.8-.64,9.41.25,14.25.17.93.4,3,1.73,2.75ZM253,75.09c-1.92-2.14-7.16,9.64-7.99,10.5l-9,8.49c1.53.1,2.97-.22,4.31-.99,4.26-2.45,6.43-7.47,9.25-10.01,1-.9,2.55-.13,2.97-.89.6-1.09.76-6.77.46-7.1ZM230,95.1c-1.68-.42-3.36.68-4.78.75-.6.03-7.36-1.45-4.21,1.24.36.31,8.8.42,8.99-1.99ZM232,116.09v-15.5c0-.58,1.89-3.42.99-4.5-1.58-1.9-2.98,9.09-3.03,10.45-.09,2.61-.63,8.22,2.04,9.55ZM241.29,103.79c-1.73-1.58-3.35-5.7-6.28-6.7-.65,3.04,11.16,13.97,11.98,13,2.45-2.89-4.79-5.47-5.7-6.3ZM254.99,107.08c-.05-2.15.11-4.35,0-6.51-.06-1.22.76-3.72-.99-3.49.05,2.15-.11,4.35,0,6.51.06,1.22-.76,3.72.99,3.49ZM270.99,105.08c.7-1.54-.49-4.08-.98-2.99-.7,1.54.49,4.08.98,2.99ZM267,108.1c-1.09-.97-8.76,4.49-9.54,6.45-1.04,2.6.56,7.08.37,7.4-.07.12-1.29.11-1.8.86-4.08,5.93,3.28.85,4.97,2.29,1.92,1.64-3.95,3.21-2.99,3.99.24.19,5.76-.81,6-1,1.19-.89-3.26-4.64-1.51-5.99,1.88,2.57,5.46,5.37,1.9,7.9-1.14.81-3.51.47-3.39,2.09,3.15,1.44,10.11-6.42,8-7.98-.94-.7-5.28.38-6-3.51-.11-.6,2.3-.51,3.46-1.51,2.13-1.82,5.25-8.9,3.53-10.98-.49-.59-3.68,4.2-4.99,2.99-.51-.48,2.52-2.52,2-2.98ZM259.5,109.09v1c.65-.33.65-.67,0-1ZM255,114.1c-1.54-.7-4.08.49-2.99.98,1.54.7,4.08-.49,2.99-.98ZM252.88,121.96c.26-.18,2.14-4.86,2.12-5.87l-4.98,4.51c-.68,2.13,2.19,1.83,2.87,1.36ZM243,117.1c-2.22-.07-4.4.51-6.55.98-1.73.38-2.92-1-2.45,2,1.51.34,2.07.73,3.68.27.96-.28,4.97-2.05,5.32-3.25ZM253,129.09c.16-.19.35-4.48-.49-5-5.3,1.51-1.52,7.41.49,5ZM228.99,133.09c-3.34-1.73-6.51-1.94-9.5-4.98-.49,1.42,2.37,3.07,3.35,3.64,1.56.9,3.87,1.16,4.16,1.35.34.22-2.86,6.69-5,6-.29,1.46,3.72,1.49,4.5,1.45,4.14-.25,6.52-1.04,5.52-5.84-.12-.57-3.97-.98-2.02-2.62,1.49-1.25,7.59,2.22,7.92,1.97.27-.2,3.37-5.7,3.07-5.97-.51-.47-12.4.51-12.99,1-.23.19,1.55,2.8.99,3.99ZM219.99,136.09c.82-1.03-1.58-3.51-1.98-3-.82,1.03,1.58,3.51,1.98,3ZM221,139.1l-12.98-2.52c1.66,1.74,4.42,2.8,6.72,3.27,1.18.24,6.06,1.19,6.26-.76Z"/>
      <path class="cls-2" d="M205,121.09c1-1.01,1.65-2.61,2.99-3-1.77,6.11,4.52,6.21,5.01,7,.83,1.35.14,2.05-1.52,2.04-1.1,0-8.16-.75-8.47-1.04-.73-.68,1.83-3.29,2-5Z"/>
      <path class="cls-2" d="M177,117.09c.1-.86,1.91-3.06,1-5l2.99,3c1.22-4.54-2.05-7.87-2.84-11.66-.41-1.94.26-1.33,1.84-1.33.24,1.82,1.53,6.9,2.49,8.02,1.43,1.66,4.08.67,4.52.99.64.46-1.4,3.76-1.5,4.84-.13,1.51.6,3.02.52,4.59s-1.48,4.69-1.03,5.55c.23.43,5.89-2.79,3.99,6-2.35-1.7-4.01-2.05-6.01-3.01-.14-.07.97-1.66.59-3-.18-.66-3.73-6.8-4.09-6.99-.55-.29-.33,2.96-2.5,2-.1-1.16-.14-2.87,0-4Z"/>
      <path class="cls-1" d="M174,21.09c.33.2,1.7-.28,1.96.04.12.15-1.22,1.87-.49,3.89.97,2.69,5.38,5.49,6.09,7.09.65,1.44-.55,2.42-.57,3.4-.01.7,1.97.48,2.08,1.19.34,2.28-2.23,9.62-.46,13.41,1.53,3.28,10.57,3.66,4.4,7.98.63-4.29-2.63-3.41-4.52-4.98s-3.23-3.91-5.48-5.02c-1.42,4.85,1.36,8.8,1.94,12.55.44,2.82-.51,6.5-.02,8.9.17.85,3.64-.53,4,4.11.03.4-1.03.32-1.12.48-.7,1.14-1.51,3.16-.81,3.96,1.94,2.19,1.68-2.56,2.99-1.99l1.01,2.5c-6.72.29.32,4.08-1,5.49-.27.29-1.12-.55-1.49-.49-4.66.78,1.6,4.77,3.47,3.47.4-.28,1.12-4.88,1.04-5.98l1.49,3.99c1.02-1.97,4.16-3.08,5.2-4.3.7-.82.42-3.14,1.81-3.69.98-.39,0,2.36.99,1.99,1.42-.53,3.33-4.73,5.49-4.51-3.76,4.5-8.15,10.01-13.98,11.52-.16,1.65,2.14,1.13,3.28,2,1.03.78,2.46,3.46,3.49,3.91,1.25.55,5.24.83,5.23,1.58-.01.99-3.46.55-4.3.3-2.41-.72-4.19-3.21-6.69-3.31l3.97,13.51-2.98-3.99c.12,1.76,0,3.47-.29,5.22-.17,1.04-.28,3.98-1.72,3.78v-21c-2.89-.46-1.66.62-2.12,2.34s-1.22,3.99-1.5,5.66c-.3,1.76.61,3.73.5,3.89-.29.41-2.5.44-2.64,1.54-.08.62,1.44,6.75,2,7.35.63.66,2.6.91,3.71,1.77,5.94,4.62,8.39,8.51,17.05,5.46l-1.67-1.16-1.83-7.82c2.97,1.84,3.42,6.5,5.45,8.55,3.56,3.58,19.59,1.44,25.05,3.46.23,1.77-2.28,1.01-3.37.88-3.02-.36-6.07-1.07-9.15-.73-1.4.15-2.17,1.33-3.17,1.54-1.35.29-3.63-2.45-1.33,1.82-.71.9-2.41-1.02-2.97-.51-.12.11.82,2.55,1,2.99-.49-.79-6.78-.89-5.01-7-1.34.39-1.99,1.99-2.99,3,.38-3.78-4.84-1.41-8.46-2.03-1.5-.26-4.67-3.22-6.41-.83-.3.41-.32,5.64-.12,5.86,1.91,2.06,2.02-3.97,3.99-1.99.54.54-1.79,2.64-.49,3l6.49-.51c-1.62,2.92-5.57,2.84-7.58,4.46-1.53,1.23-.61,3.75-3.42,3.05,1.9-8.79-3.76-5.57-3.99-6-.46-.86.95-4.01,1.03-5.55s-.66-3.09-.52-4.59c.1-1.09,2.13-4.38,1.5-4.84-.45-.32-3.09.67-4.52-.99-.96-1.11-2.25-6.2-2.49-8.02-1.58,0-2.25-.61-1.84,1.33.79,3.79,4.06,7.12,2.84,11.66l-2.99-3c.91,1.95-.9,4.14-1,5l-3-96ZM177.99,74.08l-1.98-14.99c.08,3.45-.22,6.93.1,10.38.09.98.44,4.71,1.88,4.61ZM180,80.09c-1.54-1.51-3.31,1.42-.49,2.99.88-.04.6-2.89.49-2.99ZM180.21,91.94c-.51-.63,2.1-3.08-.19-2.84-1.7,3.38-2.56,6.08-2.01,9.99,1.97.75,3.4-2.59,3.75-3.74,1.23-4.04-1.11-2.86-1.55-3.4Z"/>
      <path class="cls-1" d="M205,121.09c-.17,1.71-2.73,4.32-2,5,.31.29,7.37,1.03,8.47,1.04,1.67.01,2.36-.69,1.52-2.04.56,1.35,4.72,8.32,4,9-.15.14-3.87.17-3.99.01-.32-.44.21-3-.01-4-1.72-.46-.43,2.06-1.57,2.02-.77-.03-1.77-.91-2.78-.76-1.16.17-2.13,1.35-3.27,1.43-1.06.07-8.06-.29-8.36-.7-1.27-1.71,2.57-3.36,2.99-3.99-1.58,1.89,2.24,2.75,3,2,.11-.11.09-2.88,0-3-.1-.12-2.89.88-2.99,1,2.11-3.15,1.94-3.92,5-7Z"/>
      <path class="cls-1" d="M177,121.09c2.17.96,1.94-2.29,2.5-2,.36.19,3.9,6.33,4.09,6.99.37,1.33-.73,2.93-.59,3,2,.96,3.66,1.31,6.01,3.01,6.11,4.42,9.19,6.63,17.13,8.37,6.07,1.33,27.18,3.11,31.86.13,3.34-2.12-1.07-2.75-1.01-2.98.22-.87,2.61-4.11,3.65-4.39,4.2-1.13,2.2,2.67,2.36,2.86.27.32,7.53-.96,8.29-1.21,3.01-.98,2.48-4.92,3.2-4.77,1.32.27,3.62,2.2,5.51,2-.48,2.01-3.11.29-5.06,2.46-1.46,1.62-.09,2.51,1.06,3.53-3.6,1.34-5.74,2.6-10,3,1.52-2.11,1.34-2.4-1.5-2.01-1.1.15-.2,1.5-.5,2.01-1.26,2.07-22.01,3.33-25.54,3.04-5.82-.47-16.66-2.87-22.25-4.76-8.51-2.88-18.35-8.53-19.22-18.28Z"/>
      <path class="cls-1" d="M307,160.09c-1.17,2.16-3.06,1.47-3.79,4.71-.56,2.53-1.04,9.73-1.21,12.79-.47,8.44-.41,20.56,1.23,28.77,2.66,13.29,24.67,13.4,26.69-1.85.93-7.03,1.08-31.05.03-37.86-.2-1.3-.66-2.5-1.45-3.55-1.24-1.65-3.31-1.37-3.5-3h15c-.18,1.7-2.25,1.21-3.47,3.03-3.52,5.26-.63,31.11-1.53,39.47-2,18.69-31.04,19.38-36.52,4.51-3.71-10.07.94-39.36-2.56-44.44-1-1.45-3-1-2.92-2.58h14Z"/>
      <path class="cls-1" d="M367.74,159.33c27.2-4.67,38.23,32.12,22.25,50.24-15.07,17.08-39.75,4.79-41.99-15.97-1.45-13.42,4.81-31.71,19.75-34.27ZM362.3,212.78c1.56,1.34,7.09,3.23,9.23,3.35,24.4,1.42,27.9-47.32,6.71-54.78-14.56-5.13-23.99,9.35-25.24,22.24-.9,9.28,1.95,22.9,9.29,29.19Z"/>
      <path class="cls-1" d="M143,238.1c-13.03,9.21-15.58,27.29-10.19,41.68,7.05,18.82,28.96,17.42,34.91-1.46,4.46-14.14,1.98-31.26-10.73-40.22,16.36,4.31,21.51,26.23,15.19,40.68-11.3,25.86-43.43,17.81-46.94-9.45-1.51-11.71,5.26-28.53,17.75-31.23Z"/>
      <path class="cls-1" d="M266,30.09c-1.07,1.45-5.5,5.28-7,4-1.93-1.66,1.91-2.03,2.02-2.63.33-1.73-.33-3.9.04-5.8.25-1.3,1.7-8.2,1.94-8.57.08-.13,2.91-.12,2.99,0,.25.36-.23,3.07.14,4.37.63,2.22,2.73.5,2.86.62.43.4-.68,4.01.51,4.02,1.84.01-.47-12.96-2.5-14l7,4.99c.19.34,1.87.48,2.07,2.56.14,1.51-1.04,2.2-1.07,2.44l-4,5.99,4-3.99c2.05,14.32-.72,29.82-1.04,44.46-.36,16.45,1.66,36.19.05,52.05-.43,4.26-1.46,4-3,6.5l-.99-11,3.01,1.48c-2.51-8.1.98-16.26-1.02-24.5-.17-.12-1.81,1.13-1.99,1.01-.55-.36,1.16-5.08-1-5-.54,2.16-1.64,4.81-2.78,6.7-.63,1.05-.66,2.78-2.23.8,2.98-2.03,2.38-6.68,3.46-8.6.57-1.01,2.41.16,2.47.06.23-.41.03-2.07.38-3.16,1.45-4.56.43-1.63-.23-5.38-.2-1.14-1.33-7.13-1.08-7.42,1.32-1.54,2.25.94,2.5,1.95.46,1.87-.16,5.63,1.49,6.04-.28-1.62.42-9.73,0-10.01-.23-.16-1.85,1.75-2,.5,2.32-3.48,2.31-6.37,2-10.49l-1,3.99c-1.6.32-1.2-2.66-1.07-3.56.28-1.93,1.88-1.28,2.06-2.11,1.4-6.49-1.71-3.13-1.98-3.32-1.99-1.39,3.63-4.18,1.98-6.01-.69-.77-10.72,9.95-12.99,8-1.83-1.59,1.4-2.14,1.97-2.48,6.05-3.56,6.77-3.17,6.03-11.51l2,5.99c5.11-2.39,2.36-9.33,2.98-13.99-2.1-.23-.47,3.39-1,4-.13.15-3.86-.48-4.04-.57-1.55-.8-1.58-3.89-3.94-3.45l6.99-5.98c-1.8.05-3.1.86-5,.99,1.44-1.96,2.41-3.36,1.99-6-1.58,1.15-6.62,6.32-1.99,6Z"/>
      <path class="cls-1" d="M138,160.09c.32.32-.22,5.66,0,7l-4.8-3.67c-1.46-.53-8.66-2.32-9.69-2.32h-14.5c-.98,0-.09,17.77-.06,19.55.1,6.37-.75,3.6-1.03,5.87-.36,2.95-.24,26.49.52,27.64,1.83,2.75,23.89.3,27.13-2.99,1.61-1.63.66-3.92,2.42-4.07v9s-38.99,0-38.99,0c.04-1.76,2.61-1.23,3.52-2.98.6-1.15.43-2.26.53-3.47.86-10.93,1.08-32.35-.03-43.07-.14-1.36-.3-2.75-1.1-3.91-1.01-1.45-3-1-2.92-2.58,4.85,1.05,37.62-1.38,39,0Z"/>
      <path class="cls-1" d="M39,160.09c.25.25.23,6.73,0,7-1.43,1.62-3.64-4.46-5.71-3.79l-11.29-2.21v51.5c0,1.4,4.46,2.15,4,3.5h-14c-.27-1.63,2.62-1.13,3.52-2.98.15-.3,1.48-6.19,1.48-6.52v-45.5c-6.05.52-13.22.75-16.99,6v-7c4.84,1.05,37.61-1.38,38.99,0Z"/>
      <path class="cls-1" d="M227,160.09c-.93,2.25-3.44,1.18-3.99,4.51-1.63,9.89-1.61,25.88-1.06,36.03.15,2.66.64,9.68,1.22,11.78.69,2.47,3.55,1.75,3.82,3.68h-14c-.08-1.58,1.92-1.12,2.92-2.58.8-1.16.96-2.55,1.1-3.91,1.4-13.54-1.12-29.28.03-43.07.07-1.18-.35-2.06-.98-3.02-1.16-1.76-3.74-1.66-4.07-3.43h15Z"/>
      <path class="cls-1" d="M59,160.09c-7.04,5.43-3.26,16.86-3.36,24.67-.07,5.74-2.23,24.9.44,28.75,1,1.45,3,1,2.92,2.58h-14c.13-1.75,2.37-1.15,3.47-3.03s1.41-6.08,1.57-8.43c.61-9.43.95-26.83-.15-35.93-.17-1.41-.78-4.5-1.42-5.58-1.11-1.88-3.34-1.28-3.47-3.03h14Z"/>
      <path class="cls-1" d="M92,160.09c-.03,1.76-2.63,1.21-3.52,2.98-.62,1.23-1.39,7.59-1.52,9.48-.59,8.28-.98,32.78,1.27,39.82.38,1.2,3.2,3.37,2.78,3.71-.7.57-10.42-.4-12.5.01-1.21-1.33,1.83-1.29,2.78-3.23.51-1.04.62-2.12.74-3.26,1.1-10.65.82-31.17.02-42.06-.33-4.52-.88-4.61-4.04-7.46h14Z"/>
      <path class="cls-1" d="M92,237.09c1.68,1.71-4,3.14-4,5.5v50.5h-10c.07-1.76,2.51-1.17,3.49-3,2.34-4.37,1.93-32.9,1.55-39.54-.32-5.45-.35-10.31-5.05-13.45,2.11.37,13.51-.5,14,0Z"/>
      <path class="cls-1" d="M419,160.09c.2,1.9-2.59.57-3.58,1.92-1.35,1.84-.88,40.58-.41,45.57.13,1.4.64,4.77,1.17,5.83.94,1.87,2.89,1.01,2.82,2.67h-12.49c-1.21-1.32,1.83-1.28,2.78-3.21.51-1.04.62-2.12.74-3.26.98-9.45,1.09-32.72,0-42.04-.2-1.71-.46-3.06-1.53-4.47-1.24-1.65-3.31-1.37-3.5-3h14Z"/>
      <path class="cls-1" d="M181,160.09c1.1.49-2.29,1.63-2.93,2.57-.29.44-2.07,5.62-2.07,5.93v47.5h-9c.04-1.75,2.61-1.23,3.52-2.98.6-1.15.43-2.26.53-3.47.86-10.93,1.08-32.35-.03-43.07-.14-1.36-.3-2.75-1.1-3.91-1.01-1.45-3-1-2.92-2.58,3.07.69,11.9-.94,14,0Z"/>
      <path class="cls-1" d="M291,237.08v56.01s-9-.01-9-.01c-.06-1.6,1.83-.94,2.84-2.64.68-1.14,1.01-3.44,1.16-4.85,1.02-9.71.92-30.22.05-40.05-.2-2.27-.54-4.24-1.74-6.22-.95-1.57-2.46-.69-2.31-2.22h9Z"/>
      <path class="cls-1" d="M337,238.09v49.5c0,.24,1.23,3.01,1.56,3.45.83,1.09,2.71.53,2.43,2.04-2-.37-11.34.54-12,0-.3-.24,2.21-2.86,2.56-3.94,1.34-4.19,1.11-38.6.47-44.58-.67-6.28-6.25-6.93,4.97-6.47Z"/>
      <path class="cls-1" d="M202,238.1c-13,9.25-15.68,27.31-10.19,41.68,5.79,15.14,23.07,18.85,32.69,5.32.81,1.36.99,6.39-.08,7.11-3.4,2.26-18.35,2.52-22.45,1.42-10.83-2.9-18.05-17.41-18.05-28.03,0-10.48,6.81-25.71,18.09-27.49Z"/>
      <path class="cls-1" d="M244,238.1c.34.28-1.43,1.83-1.73,2.76-2.01,6.19-2.25,42.71-.02,48.48.44,1.15,3.09,3.46,2.75,3.74-.47.38-11.53.38-12,0-.32-.26,2.31-2.75,2.78-3.72,2.2-4.58,1.89-43.21-.05-48.5-.32-.87-2.04-2.51-1.72-2.77.39-.32,9.61-.32,10,0Z"/>
      <path class="cls-1" d="M256,160.1l-7.03,4.46c-11.71,10.02-12.15,38.64,1.03,48.04-2.84,1.56-6.72-2.27-8.52-4.48-12.14-14.87-6.85-45.41,14.52-48.01Z"/>
      <path class="cls-1" d="M264.7,209.79c-.31.37-2.97,2.23-3.68,1.81,14.04-17.29-20.69-30.2-7.51-46.5,1.38,1.38-.36,3.89-.35,5.52.05,8.97,16.75,18.37,14.63,31.73-.25,1.57-2.11,6.29-3.09,7.45Z"/>
      <path class="cls-1" d="M426.01,189.08l7.29-1.2c9.34-3.6,11.58-16.59,4.37-23.45-4.4-4.18-11.18-2.94-11.66-3.35-3.18-2.72,6.51-1.91,7.26-1.76,22.97,4.44,14.46,35.95-7.26,29.75Z"/>
      <path class="cls-1" d="M449.99,215.1c.26,1.66-1.35.92-2.47.99-2.57.16-5.9.5-8.09-.93-3.26-2.14-10.19-15.73-14.03-19.97-1.58-1.75-4.51-2.57-5.4-5.09,16.13,1.21,16.89,21.13,29.99,25Z"/>
      <path class="cls-1" d="M211,274.08c-1.62,1.77-4.06-3.62-4.06-5.5.02-10.02,17.98-12.74,15.4-23.28l-2.85-6.2c7.63,3.79,8.32,10.75,3.52,17.49-2.7,3.79-12.38,9.02-12.75,13.12-.11,1.16,1.23,3.84.74,4.37Z"/>
      <path class="cls-1" d="M274.99,292.1c.05,1.7-4.51,1.14-5.55,1.05-1.66-.15-2.44.04-4.01-.99-3.7-2.42-9.21-15.21-13.44-19.56-2.43-2.49-5.1-2.95-6.99-5.5,16.28.47,17.22,20.26,29.99,25Z"/>
      <path class="cls-1" d="M370.99,292.1c.05,1.7-4.51,1.14-5.55,1.05-1.66-.15-2.44.04-4.01-.99-3.69-2.42-9.21-15.21-13.44-19.55-2.86-2.94-6.04-3.22-7.97-7.02l12.48,6.51c7.1,5.41,9.43,17.57,18.49,20.01Z"/>
      <path class="cls-1" d="M354,266.08c.43-1.73,3.17-1.22,4.98-2.5,8.07-5.75,6.13-20.98-3.29-24.69l-8.69-2.79c7.04-.34,16.66,1.8,19.88,8.6,4.89,10.34-1.07,21.69-12.88,21.38Z"/>
      <path class="cls-1" d="M269.86,238.22c.89.6,1.23,4.87,1.1,6.25-.5,5.23-5.03,10.08-9.26,12.81-1.79,1.16-13.9,6.49-14.69,5.8-1.79-1.58,1.27-2.13,2-2.45,6.83-2.98,16.38-7.55,16.97-16.17.12-1.71-1.39-5.97-.97-6.38.17-.17,4.36-.2,4.86.13Z"/>
      <path class="cls-1" d="M44.97,323.1c.52.77.86,5.58,1.03,7,3.49,1.12,1.86-6.71,3.5-7.01,1.02-.19,2.24-.48,2.48.7s.63,6.3,1.52,6.32c1.48.03,1.02-9.03,5.5-7-1.46,1.82-3.23,12.41-4.06,12.95-4.19,2.71-3.38-6.96-4.44-6.96s-1.27,6.69-1.56,6.96c-.19.17-3.77.17-3.89,0-.66-.94-1.67-10.4-3.07-12.44-.03-.89,2.9-.63,2.99-.51Z"/>
      <path class="cls-1" d="M292.73,225.79c.73-.67.8-2.65,2.26-2.7.46,8.77-11.89,10.79-18.03,6.54l-13.96-8.53c6.89.66,23.87,10.05,29.72,4.7Z"/>
      <path class="cls-1" d="M74.99,329.09c.27-1.28-.37-5.55.01-6,.1-.11,2.9-.12,2.99,0,.42.5.45,12.53,0,13-2.59,2.67-5.95-6.5-7.99-7-.3,1.41.4,6.51-.01,7-.1.11-2.88.08-3-.01-.14-.12.94-2.17,1.03-3.46.22-3-1.49-13.73,3.46-8.52,1.22,1.28,1.24,4.41,3.5,4.99Z"/>
      <path class="cls-1" d="M91,323.09c2.32,2.08-5.29,4.02-6.99,3-.84,3.61,3.08,1.32,4,2,.12.09.12,2.91,0,2.99-.63.45-4.04-.7-4.02.51.08,4.03,10.46,1.55,7,4.49-.38.32-9.65.36-10,0-.46-.46-.46-12.55,0-13.01.35-.35,9.63-.32,10,0Z"/>
      <path class="cls-1" d="M243.01,323.09c.11.1.1,2.89,0,2.99-1.16,1.12-5.79-1.23-5.99-1-.14.17-.52,2.86.67,3.02.94.12,2.92-.28,3.33-.01.12.08.12,2.91,0,2.99-.58.38-3.44-.38-4.02,0-.12.08-.11,2.9,0,2.99.32.27,10.32-.84,7,2-.42.36-10.58.35-11,0-.14-.12.94-2.17,1.03-3.46.13-1.77-.37-9.2-.04-9.54.32-.32,8.66-.28,9.01,0Z"/>
      <path class="cls-1" d="M115,324.1c-1.12,3.92-6.06.2-6.99.99-2.36,2,6.69,3.6,7.56,4.98,2.56,4.06-4.78,8.91-9.58,5.53-1.49-1.05-.19-2.4.53-2.51,1.29-.19,7.07,3.29,5.5-1.5-.38-1.16-9.09-1.59-6.56-6.51,1.7-3.3,6.7-1.83,9.54-.98Z"/>
      <path class="cls-1" d="M400,327.08c4.24-.23,11.49,4.23,6.58,8.1-1.31,1.03-7.98,1.41-8.59.91-.12-.1-.09-2.88.01-2.99.43-.47,5.46,2.74,6.99-.52,1.07-2.29-6.99-1.95-7.56-4.49-2.08-6.16,10.14-6.65,9.57-2.51-.4,2.87-3.09-.16-3.71-.32-1.74-.43-2.78.12-3.28,1.82Z"/>
      <path class="cls-1" d="M134.99,67.09c-.18.23-7.17-4.5-4.98-.51,1.31,2.4,7.32,1.1,6.74,5.84-.52,4.26-6.74,4.84-9.79,3.2-1.11-.59-.13-3.31.04-3.53.27-.33,6.87,5.25,7-.49.02-.86-7.08-.9-7.91-4.18-1.06-4.19,5.2-5.06,8.29-4.21,1.91.53,1.09,3.27.6,3.88Z"/>
      <path class="cls-1" d="M231.01,323.09c.11.1.1,2.89,0,2.99-1.16,1.12-5.8-1.23-5.99-1-.1.11-.14,2.91-.02,3,.58.38,3.44-.38,4.02,0,.12.08.12,2.91,0,2.99-.58.38-3.44-.38-4.02,0-.12.08-.11,2.9,0,2.99.27.22,9.19-.73,6,2-.38.32-9.61.32-10,0-.19-.16.83-1.63.93-2.55.21-1.92.22-4.07.12-6-.09-1.68-1.23-4.28-1.05-4.43.38-.32,9.62-.32,10,0Z"/>
      <path class="cls-1" d="M289,325.09c-3.07,2.65,9.78,2.8,6.52,9.01-1.47,2.8-7.37,3.25-9.53,1.98-.13-.08-.09-2.88.01-2.99.33-.36,6.9,3.11,7-1.49.03-1.21-8.73.23-7.06-6.87.4-1.71,8.52-2.66,9.05-.12.23,1.13-.66,2.41-1.96,1.98-.71-.24-2.82-2.54-4.04-1.49Z"/>
      <path class="cls-1" d="M338,63.09c3.18,2.72-5.73,1.54-6,2.5-.77,2.73,3.54.5,5.52,2.47,2.37,2.35,1.53,7.36-2.02,8.03-7.7,1.46-7.14-4.19-5-3.99.33.03,1.84,2.55,3.98,1.98,1.12-.29,1.84-2.27,1.51-3.49-.8-2.92-5.14.77-6.53-1.46-.59-.95-.71-5.81-.46-6.05.32-.31,8.66-.28,9,0Z"/>
      <path class="cls-1" d="M296.01,72.11c-2.81,3.86,5.74.69,5.99.98.1.11.13,2.9.01,3-.38.32-9.64.35-10,0-2.11-2.07,5.53-6.79,6.01-9.48.69-3.87-7.73,3.43-6.01-1,1.68-4.3,11.16-3.05,9.88,1.79-.72,2.74-5.66,4.4-5.89,4.71Z"/>
      <path class="cls-1" d="M57,184.08c.37-1.74,1.99-2,3.5-2.07,5.47-.26,10.91,4.16,16.98,3.06,1.6-.29,2.34-1.96,3.51-1.49-6.15,11.77-15.25,1.2-23.98.5Z"/>
      <path class="cls-1" d="M324.61,69.75c-.75,1.25-4.03,2.74-4.61,4.33.68-.18,9.91-.49,7,2-.42.36-10.59.38-10.99,0-2.23-2.12,6.62-6.99,7.01-9.49.65-4.16-5.28,1.28-6.01.49-.1-.11-.14-2.57.07-2.91.87-1.41,12.95-3.44,7.53,5.57Z"/>
      <path class="cls-1" d="M132,185.09c1.01.87-1.17,2.74-2.25,3.23-6.93,3.15-12.45-3.18-18.74-4.73,4.24-4.22,9.36.78,13.55,1.44,1.66.26,7.1-.23,7.44.06Z"/>
      <path class="cls-1" d="M167.01,323.09c.12.1.13,2.92,0,2.99-.62.32-2.85-.66-3.06.54-.33,1.84.55,8.89.06,9.46-.13.15-3.86.15-3.99,0-.51-.6.42-7.56.06-9.4-.11-.56-6.16-1.77-4.06-3.6.42-.36,10.58-.35,11,0Z"/>
      <path class="cls-1" d="M348,323.08c1.19,1.43-2.69,11.9,3.49,11.01,1.79-.26,1.45-7.9,1.51-9.53s.93-2.72,2-1.48c.34.39.17,9.07-.19,10.3-1.12,3.82-8.49,3.82-9.61,0-.36-1.22-.52-9.91-.19-10.31.1-.12,2.9-.11,2.99,0Z"/>
      <path class="cls-1" d="M124,63.09c3.1,2.63-7.21,1.45-6.99,3.51-.55,3.02,4.2.8,5,1.49.11.1.11,2.9,0,3-.2.17-5.06-1.22-5.01.51.12,4.04,10.45,1.55,7,4.49-.34.29-8.68.33-9,0-.34-.34.16-7.77.04-9.54-.09-1.29-1.17-3.34-1.03-3.46.38-.32,9.61-.33,10,0Z"/>
      <path class="cls-1" d="M369,323.09c2.75,2.44-4.7,2.84-4.96,3.03-.55.41.5,9.33-.04,9.97-.1.12-2.9.12-2.99,0-.51-.61.45-9.66,0-10.01s-3.44.38-4.02,0c-.13-.08-.11-2.9,0-2.99.46-.38,11.55-.4,12,0Z"/>
      <path class="cls-1" d="M309,323.09c.45,3.93-2.99,1.75-4.01,2.41-3.1,2.02.43,10.22.01,10.57-.15.13-3.87.16-4,.01-.51-.6.42-7.56.06-9.4-.11-.56-6.16-1.77-4.06-3.6.58-.5,10.04.35,11.99,0Z"/>
      <path class="cls-1" d="M293,261.08c-.21-1.43,3.77-1.85,4.5-1.81,4.35.21,8.26,3.37,12.11,3.78,2.12.23,3.49-.42,5.37-.47-7.23,8.75-13.88-1.4-21.98-1.5Z"/>
      <path class="cls-1" d="M149,63.09c.93,3.57-3.19,1.33-4,1.99-.46.37.53,10.38,0,11.01-.1.12-2.9.12-2.99,0-.53-.63.47-10.64,0-11.01-.82-.66-4.94,1.58-4-1.99h10.99Z"/>
      <path class="cls-1" d="M319.5,237.09c1.73.53,2.01,6.35,1.49,7-.26.33-5.33-4.78-7.17-4.32l-13.82-2.68c4.97.95,15.32-1.29,19.5,0Z"/>
      <path class="cls-1" d="M103,293.09l10.35-4.15c2.15-1.17,4.26-7.65,4.65-1.37.06,1.03.28,5.51,0,5.51h-15Z"/>
      <path class="cls-1" d="M206,216.09h-15c2.43-3.35,7.76-1.56,11.38-4.12,1.61-1.14,1.81-3.26,3.61-3.88v8Z"/>
      <path class="cls-1" d="M321,293.09h-14l10.36-4.14c5.73-7.56,3.09-1.95,3.64,4.14Z"/>
      <path class="cls-1" d="M283,323.08c.42.49.42,12.51,0,13.01-.13.15-3.84.12-4-.01-.17-.15.97-2.75,1.05-4.43.1-1.93.09-4.08-.12-6-.1-.92-1.12-2.39-.93-2.55.15-.13,3.87-.16,4-.01Z"/>
      <path class="cls-1" d="M64,323.08c.42.5.42,12.51,0,13.01-.1.12-2.9.12-2.99,0-.42-.5-.42-12.51,0-13.01.1-.12,2.9-.12,2.99,0Z"/>
      <path class="cls-1" d="M154,323.08c.42.5.42,12.51,0,13.01-.1.12-2.9.12-2.99,0-.42-.5-.42-12.51,0-13.01.1-.12,2.9-.12,2.99,0Z"/>
      <path class="cls-1" d="M328,323.09c.24.22-1.03,4.75-1.07,6.47-.05,2.37,1.32,6.31,1.07,6.52-.15.13-3.85.13-4,0-.14-.12.94-2.17,1.03-3.46.13-1.79-.36-9.13-.03-9.54.1-.12,2.88-.09,2.99.01Z"/>
      <path class="cls-1" d="M133,323.08c.34.4-.16,7.75-.03,9.54.09,1.29,1.17,3.34,1.03,3.46-.15.13-3.85.13-4,0-.19-.16.83-1.63.93-2.55.21-1.92.22-4.07.12-6-.09-1.68-1.23-4.29-1.05-4.43.11-.1,2.9-.13,3-.01Z"/>
      <path class="cls-1" d="M95.02,338.08c.41-1.53-3.75-3.26-2.01-4.99,1.85-1.84,6.89,3.21,2.01,4.99Z"/>
      <path class="cls-2" d="M275,24.09l-4,3.99,4-5.99c-.08.55-.08,1.45,0,2Z"/>
      <path class="cls-1" d="M151,73.09c.61-.61,3.97.45,3.98,1.5.03,2.93-5.84.37-3.98-1.5Z"/>
      <path class="cls-1" d="M257,160.08c-.27-1.69,2.43-1.1,3.49-.99,32.47,3.46,31.18,52.07,1,59.98l13.35-12.64c10.14-15.15,4.79-47.63-17.83-46.34Z"/>
      <path class="cls-1" d="M174,328.09c-.81-.09-1.87.45-2.01-.5-.63-4.41,1.09-1.76,2.01-1.5,7.56,2.21,6.33-4.39-1.47-2.98-3.23.58-4.91,3.78-2.06,6.02.33,1.93,7.62,1.16,6.53,3.45-1.49,3.12-5,.37-6.4.65-1.16.24-2.13,2.38-1.59,2.86.28.25,6.26.56,7.51.11,6.24-2.26,4.31-7.33-2.51-8.1Z"/>
      <path class="cls-2" d="M244,141.09c.31-.51-.59-1.85.5-2.01,2.83-.4,3.01-.1,1.5,2.01-.66.06-1.34-.04-2,0Z"/>
      <path class="cls-1" d="M260,136.09c-.41,1.91-1.85,1.53-3,2,.43-1.91,1.76-1.56,3-2Z"/>
      <path class="cls-1" d="M259,222.08c-.07.07-2.12.38-1.99-.49,1.56-2.72,3.13-.68,1.99.49Z"/>
      <path class="cls-1" d="M202,2.09c-.84-.06-1.78,0-2-1,.77.21,1.66-.03,2,1Z"/>
      <path class="cls-1" d="M132.5,183.09c.65.33.65.67,0,1v-1Z"/>
      <path class="cls-1" d="M262,35.1c-.4,1.88-3.27,1.89-3.85,3.64-.48,1.46.11,5.08-.15,5.35-2.5,2.57-1.22-2.8-1.44-3.99-1.02-5.45-4.86.97-5.59,1.42-1.95,1.2-6.98,1.33-8.56,3.57-.86,1.23,1.02,3.57.58,4-.25.24-4.77-1.49-6.57.96-.6.81,1.14,10.7,1.58,11.06.17.14,3.43-2.13,4,.98-5.5.14-11.04-.14-16.54-.04s-12.93,1.19-17.88,1c-3.35-.13-12.37-4.57-15.57-6.45,3.78-1.12,7.17,4.73,7.49-1.49,1.75,3.01,3.68.89,5.78,1.19,2.44.36,6.52,3.26,9.49,3.63,2.71.34,5.32-1.38,7.61-.88,1.19.26-.06,2.49,1.61,2.05.1-1.1,1.61-4.43,1.01-4.99-.16-.15-3.21.04-4.38-.12-1.24-.17-5.45-.44-5.62-1.87,1.7-.19,3.72.36,5.32-.02.72-.17.52-1.64,1.4-1.93,1.24-.41,9.86-1.44,10.27-1.05.8.76-1.25,6.51-1.61,7.89-.3,1.15-.81,3.05,1.1,2.1,3.04-1.51,1.19-13.26,1.6-13.84.26-.36,1.82-.45,2.43-1.13,2.27-2.52,3.73-3.79,6.23-5.96l20.24-5.05Z"/>
      <path class="cls-1" d="M218,26.09c-.62-.95-3.49-1.66-2-3,1.14-1.03,5.25,2.53,6.99,2.01,0,1.93-3.62.8-4.99.99.15.22-.33,1.22.25,1.77.3.28,3.55.41,1.75,2.23,1.48-1.01,3.57-1.51,4.02-3.47,2.02-1.09,1.54.19.5,1.49-7.39,9.28-14.37,8.94-25.51,7.99l1.5,2-6.92-2.05c-.33,1.74-2.47,1.92-2.57,2.06-1.56,2.32,3.29,2.02,1.97,2.97-.53.39-3.84.81-4,1.02-.38.51,1.49,3.77,1.01,3.98-.37.16-1.45-.23-2.22.03-1.37.46-.16,2.35-1.78,1.97.11-2.51-2.09-13.89-1-14.99,1.67-1.71,1.99,1.59,2.72,1.97.68.35,2.12.64,2.91.67.92.03,5.43-.15,5.35-1.63-1.88-1.64-7.77.34-7.98,0s.19-2.02-.51-2.97c-.91-1.26-6.91-2.71-7.51-6.03,2.4,1.02,5.34.99,7.51,1.5,1.13.26,1.56,1.3,2,1.49,1,.43-.26-2.51,1.49-1.99-.18,2.94,6.17,4.59,8.39,4.03,1.05-.26.25-2.35,1.12-2.03,1.46.54,2,4.5,1.5,4.99-.61.6-4.63-1.32-5.99-.99-.18,1.46,2.61,1.8,3.57,1.9,5.7.62,11.05-1.23,16.72-1.11,2.03.05,2.86-2.22,3.7-2.8-1.54,1.55-2.8-1.01-3.42-1.58-.67-.62-1.53-.37-1.57-.44-.62-1,1.96-1.84,2.99-1.98ZM189,37.1c-1.88-1.59-4.46,1.53-3,2.99,1.54,1.52,3.19-2.82,3-2.99Z"/>
      <path class="cls-1" d="M267,108.1c.52.47-2.51,2.51-2,2.98,1.31,1.21,4.5-3.58,4.99-2.99,1.73,2.09-1.4,9.16-3.53,10.98-1.16,1-3.57.91-3.46,1.51.72,3.89,5.06,2.81,6,3.51,2.11,1.57-4.85,9.42-8,7.98-.13-1.62,2.25-1.28,3.39-2.09,3.56-2.53-.01-5.32-1.9-7.9-1.75,1.35,2.7,5.11,1.51,5.99-.24.18-5.77,1.19-6,1-.95-.78,4.92-2.34,2.99-3.99-1.69-1.44-9.05,3.64-4.97-2.29.51-.74,1.73-.73,1.8-.86.2-.32-1.4-4.8-.37-7.4.78-1.96,8.45-7.42,9.54-6.45ZM264.83,117.93c1.1-.7,1.66-5.7-.33-5.82-.29-.02-3.8,2.74-5.51,1.99,2.71,5.83-1.07,2.79-.98,3.48.21,1.66,5.98.88,6.81.35Z"/>
      <path class="cls-1" d="M228.99,133.09c.56-1.19-1.22-3.8-.99-3.99.59-.49,12.49-1.47,12.99-1,.3.28-2.8,5.77-3.07,5.97-.33.25-6.44-3.23-7.92-1.97-1.94,1.64,1.91,2.05,2.02,2.62.99,4.79-1.38,5.58-5.52,5.84-.78.05-4.79.02-4.5-1.45,2.14.69,5.34-5.78,5-6-.29-.19-2.61-.45-4.16-1.35-.98-.57-3.84-2.22-3.35-3.64,2.99,3.04,6.16,3.25,9.5,4.98Z"/>
      <path class="cls-1" d="M253,75.09c.3.33.14,6.02-.46,7.1-.42.76-1.98-.01-2.97.89-2.82,2.54-4.99,7.57-9.25,10.01-1.34.77-2.77,1.08-4.31.99l9-8.49c.84-.86,6.08-12.63,7.99-10.5Z"/>
      <path class="cls-1" d="M237.33,27.73c.93.94,1.79,1.1,2.9,2.61.98,1.34,2.33,6.42,4.26,6.51.47.02,6.78-2.36,9.13-2.65,1.09-.13,4.54-.97,4.37.87l-26.99,5.01c-.43-2.89.56-1.79,2.5-1.97,1.67-.16,7.55-.32,8.49-1.03,1.75-1.32-6.73-9.74-6.98-11.5,1.33-.93,1.68,1.52,2.31,2.15Z"/>
      <path class="cls-1" d="M232,116.09c-2.68-1.32-2.14-6.94-2.04-9.55.05-1.37,1.46-12.35,3.03-10.45.9,1.08-.99,3.92-.99,4.5v15.5Z"/>
      <path class="cls-1" d="M214.5,42.09c-1.44-.13-5.03-.88-6.79-1.21-1.12-.21-3.1-2.09-.19-1.82,8.17,2.35,15.75,1.68,23.99,2.03,1.23.05,3.72-.76,3.49,1-6.65-.43-13.93.59-20.5,0Z"/>
      <path class="cls-1" d="M231.99,91.08c-1.33.26-1.56-1.82-1.73-2.75-.89-4.84-1.31-9.44-.25-14.25l2.66,7.65-.68,9.35Z"/>
      <path class="cls-1" d="M241.29,103.79c.91.83,8.15,3.41,5.7,6.3-.82.97-12.64-9.96-11.98-13,2.93,1,4.56,5.12,6.28,6.7Z"/>
      <path class="cls-1" d="M181.98,15.1c.22.18,2.64,4.49,3.21,4.73.87.37,4.63-1.11,5.81,3.25-3.09,0-9.92-3.95-10.99-6.5-.69-1.64,1.29-2.04,1.97-1.48Z"/>
      <path class="cls-1" d="M243,117.1c-.35,1.2-4.35,2.97-5.32,3.25-1.61.47-2.17.07-3.68-.27-.47-3,.71-1.62,2.45-2,2.14-.47,4.33-1.05,6.55-.98Z"/>
      <path class="cls-1" d="M221,139.1c-.2,1.95-5.08,1-6.26.76-2.29-.48-5.06-1.53-6.72-3.27l12.98,2.52Z"/>
      <path class="cls-1" d="M199,42.08c.16.19.16,4.81,0,5-.13.16-3.83-.89-4-1.01-.27-.18,1.91-6.57,4-4Z"/>
      <path class="cls-1" d="M252.88,121.96c-.68.47-3.54.77-2.87-1.36l4.98-4.51c.02,1.01-1.86,5.7-2.12,5.87Z"/>
      <path class="cls-1" d="M217,16.1l-8.99,2.99c-.44-2.61.4-1.79,2.17-2.28,2.29-.64,4.44-.97,6.82-.71Z"/>
      <path class="cls-1" d="M253,129.09c-2.01,2.41-5.79-3.49-.49-5,.84.52.65,4.81.49,5Z"/>
      <path class="cls-1" d="M230,95.1c-.19,2.4-8.63,2.3-8.99,1.99-3.14-2.69,3.61-1.21,4.21-1.24,1.42-.07,3.1-1.16,4.78-.75Z"/>
      <path class="cls-1" d="M202.99,26.09c-.13.16-2.78-1.47-3.99-1.01-.46-1.72,2.08-.44,2.06-1.55-.02-1.18-1.44-2.88-1.06-4.43,1.69.18,3.44,6.46,2.98,7Z"/>
      <path class="cls-1" d="M197.33,6.78c.39.71,2.9.77,1.66,4.31-3.08-1.21-3.33-4.04-2.98-7,1.69-.28.67,1.48,1.32,2.68Z"/>
      <path class="cls-1" d="M258.99,30.09c-2.15-.69-1.67-1.11-1.28-2.73.24-1.03.92-4.32,2.29-4.26l-1,6.99Z"/>
      <path class="cls-1" d="M196,20.09c.18.17.18,4.82,0,4.99-2.82,2.78-2.82-7.77,0-4.99Z"/>
      <path class="cls-1" d="M254.99,107.08c-1.75.23-.93-2.26-.99-3.49-.1-2.16.06-4.35,0-6.51,1.75-.23.93,2.26.99,3.49.1,2.16-.06,4.35,0,6.51Z"/>
      <polygon class="cls-1" points="264.99 78.09 260.33 72.29 258.01 66.09 263.65 73.94 264.99 78.09"/>
      <path class="cls-1" d="M254.99,73.08c-2.06-.05-.5-6.92,1-6.99l-1,6.99Z"/>
      <path class="cls-1" d="M234,22.09c2.98,2.98-5.76.42-6.99.99,0-1.65,6.74-1.24,6.99-.99Z"/>
      <path class="cls-1" d="M202,12.09c-.07-.47-.08-1.93,0-2,1.09-.86,10.49.22,0,2,.18,1.25,3.8,1.16,1.99,3-.22.23-4.35-2.72-5.99-2.01-.16-1.88,2.75-.78,3.99-.99Z"/>
      <path class="cls-1" d="M192,8.08c-2.72,2.58-2.38-5.64-1.01-3.99.23.27,1.21,3.8,1.01,3.99Z"/>
      <path class="cls-1" d="M190,15.1c.45.37-1.72,3.24-3,.49.04-.89,2.88-.58,3-.49Z"/>
      <path class="cls-1" d="M262,39.09c1.09,1.09-.9,3.08-1.99,1.99s.9-3.08,1.99-1.99Z"/>
      <path class="cls-1" d="M199.99,15.1l-4.99,2.99c.02-2.66,2.78-4.53,4.99-2.99Z"/>
      <path class="cls-1" d="M215,8.08c-1.03.82-3.51-1.58-3-1.98,1.03-.82,3.51,1.58,3,1.98Z"/>
      <path class="cls-1" d="M219.99,136.09c-.41.51-2.8-1.97-1.98-3,.41-.51,2.8,1.97,1.98,3Z"/>
      <path class="cls-1" d="M255,114.1c1.09.49-1.45,1.68-2.99.98-1.09-.49,1.45-1.68,2.99-.98Z"/>
      <path class="cls-1" d="M270.99,105.08c-.49,1.09-1.68-1.45-.98-2.99.49-1.09,1.68,1.45.98,2.99Z"/>
      <path class="cls-1" d="M262,15.1l-1.99,1.99c-.28-2.09-.1-2.27,1.99-1.99Z"/>
      <path class="cls-1" d="M218.71,10.38c2.58,2.58,5.31,8.1,6.29,11.7l-4.55-7.93-3.95-4.06c-1.12-1.63,2.12.2,2.22.3Z"/>
      <path class="cls-1" d="M209,30.08c-2.09.28-2.27.1-1.99-1.99l1.99,1.99Z"/>
      <path class="cls-1" d="M198.99,22.08c-.47.97-1.93-1.98-1.5-2.98.89.71,2.07,1.78,1.5,2.98Z"/>
      <path class="cls-1" d="M259.5,109.09c.65.33.65.67,0,1v-1Z"/>
      <path class="cls-2" d="M180.21,91.94c.44.54,2.78-.64,1.55,3.4-.35,1.15-1.78,4.49-3.75,3.74-.56-3.91.3-6.61,2.01-9.99,2.29-.23-.32,2.21.19,2.84Z"/>
      <path class="cls-2" d="M177.99,74.08c-1.44.11-1.79-3.63-1.88-4.61-.32-3.45-.03-6.94-.1-10.38l1.98,14.99Z"/>
      <path class="cls-2" d="M180,80.09c.11.11.39,2.95-.49,2.99-2.82-1.57-1.05-4.5.49-2.99Z"/>
      <path class="cls-1" d="M217.47,329.59c-.27-1.77,1.77-4.41-1.47-6.01-1.24-.61-7.7-.81-8-.5-.46.46-.46,12.55,0,13.01.5.5,9.27.56,10.56-2,1.24-2.45-.87-3.05-1.09-4.5ZM215,325.09c2.18,2.14-2.58,4.38-4,2.99-2.18-2.14,2.58-4.38,4-2.99ZM211,334.08c-.92-.92-.86-5.22,3.38-3.88,4.57,1.44-1.58,5.68-3.38,3.88Z"/>
      <path class="cls-1" d="M196.97,332.58c.03-1.36,3.2-4.26,2.03-5.49-.43-.45-2.71,1.34-2.99,1-.76-.93,1.71-5.87-4.5-5.04-3.46.46-2.14,3.59-2.78,6.29-.37,1.57-3.29,4.11.25,6.27,1.13.69,9.64.81,10.01.48,1.99-1.78-2.04-3.27-2.04-3.5ZM194,325.09c1.04,1.04-1.89,4.53-2.99,1.48-.77-2.15,2.7-1.77,2.99-1.48ZM191.51,334.08c-3.85-1.43.84-5.63,2.49-3.99.42.42.97,5.27-2.49,3.99Z"/>
      <path class="cls-1" d="M340.46,329.61c-.18-1.4,1.28-4.17.43-5.42-.69-1.03-9.47-1.54-9.9-1.11-.46.46-.46,12.55,0,13.01.5.5,8.6.34,10.09-1.42,2.24-2.66-.43-3.55-.63-5.06ZM334,325.09c1.24-1.24,6.7,1.37,4.99,2.99-1.23,1.17-7.58-.39-4.99-2.99ZM339,334.08c-.18.17-4.81.16-5,0-.15-.13-.13-3.85,0-3.99,1.64-1.65,7.05,1.99,4.99,3.99Z"/>
      <path class="cls-1" d="M394.09,324.5c-1.44-1.77-9.61-1.89-10.09-1.41-.46.46-.41,12.52,0,13.01.13.15,3.84.12,4-.01.23-.2-2.85-4.86,1.49-5,1.09-.03,1.16,4.51,1.62,4.89.35.29,3.74.23,3.89.11.26-.22-2.05-2.95-1.98-4.5.1-2.1,3.79-3.74,1.06-7.08ZM392,329.08c-.19.16-4.82.16-5.01,0-.15-.13-.15-3.86,0-3.99.19-.16,4.82-.16,5.01,0,.15.13.15,3.86,0,3.99Z"/>
      <path class="cls-1" d="M144.95,330.61c.02-.52,1.57-.45,1.74-.75.76-1.32.66-5.48-.62-6.33-.93-.62-8.75-.76-9.07-.44-.46.46-.41,12.51,0,13.01.1.12,2.9.11,2.99,0,.48-.57-.74-5.04.51-5.01,2.92.05,3.68,7.81,6.49,5,.92-.92-2.11-3.89-2.05-5.48ZM140,329.08c-.92-.92-.86-5.22,3.38-3.88,4.57,1.44-1.58,5.68-3.38,3.88Z"/>
      <path class="cls-1" d="M255.88,324.21c-.71-1.05-9.45-1.55-9.88-1.12-.46.46-.41,12.51,0,13.01.1.12,2.9.11,2.99,0,.48-.57-.74-5.04.51-5.01,2.92.05,3.67,7.81,6.49,5,.9-.89-1.76-3.51-1.85-4.65-.1-1.31,3.38-4.79,1.73-7.22ZM249,329.08c-.92-.92-.86-5.22,3.38-3.88,4.57,1.44-1.58,5.68-3.38,3.88Z"/>
      <path class="cls-1" d="M318.97,331.59c.03-1.96,3.88-3.7,1.11-7.1-1.38-1.7-8.57-1.93-9.09-1.41-.46.46-.41,12.51,0,13.01.1.12,2.9.11,2.99,0,.51-.61-.78-4.7.51-5.01,2.24-.54,1.72,2.68,2.99,4,.88.91,2.88,1.59,3.5,1,.97-.93-2.05-3.06-2.02-4.49ZM313,329.08c-.14-.14-.14-3.85,0-3.99.43-.43,5.67-.15,5.99,1.51.54,2.79-5.44,3.02-5.99,2.48Z"/>
      <path class="cls-1" d="M373.7,323.29c-7,2.08-4.05,17.96,5.21,12.22,6.5-4.04,2.86-14.62-5.21-12.22ZM377.4,334.01c-5.57,1.82-6.92-7.46-2.76-8.81,5.88-1.91,5.41,7.94,2.76,8.81Z"/>
      <path class="cls-1" d="M274.4,324.19c-1.49-.96-7.77-1.75-8.4-1.11-.46.46-.46,12.55,0,13.01.26.26,6.22.13,7.32-.19,4.08-1.2,5.13-9.1,1.08-11.71ZM273.56,333.15c-.77,1.15-5.29,1.25-5.56.94-.3-.34-.3-8.67,0-9.01.2-.22,4.21-.12,5.06.44,1.36.9,1.38,6.3.5,7.63Z"/>
      <path class="cls-1" d="M305.23,64.33c-3.31,3.31-1.41,15.2,6.78,11.27,7.47-3.59-.13-17.91-6.78-11.27ZM310.49,74.08c-4.61,1.26-5.78-7.72-1.9-8.91,4.72-1.45,4.24,8.27,1.9,8.91Z"/>
      <path class="cls-1" d="M128.05,326.64c-.4-4.37-9.34-4.26-10.05-3.55-.46.46-.41,12.51,0,13.01.1.12,2.9.12,2.99,0,.39-.47-.37-4.7,0-5.01.59-.49,7.57,1.27,7.05-4.45ZM125,329.08c-.19.16-4.82.16-5.01,0-.15-.13-.15-3.86,0-3.99.19-.16,4.82-.16,5.01,0,.15.13.15,3.86,0,3.99Z"/>
      <path class="cls-2" d="M189,37.1c.2.17-1.46,4.51-3,2.99s1.11-4.58,3-2.99Z"/>
      <path class="cls-2" d="M264.83,117.93c-.84.53-6.6,1.31-6.81-.35-.09-.7,3.69,2.35.98-3.48,1.71.75,5.22-2,5.51-1.99,1.99.12,1.43,5.12.33,5.82Z"/>
    </g>
  </g>
</svg>