<?xml version="1.0" encoding="UTF-8"?>
<svg id="Layer_2" data-name="Layer 2" xmlns="http://www.w3.org/2000/svg" viewBox="0 0 105.17 144.17">
  <defs>
    <style>
      .cls-1 {
        fill: #be7860;
      }

      .cls-2 {
        fill: #f3e3d7;
      }
    </style>
  </defs>
  <g id="Layer_1-2" data-name="Layer 1">
    <g>
      <path class="cls-2" d="M29.09,1.09c.22,1.01,1.16.94,2,1,21.19,1.53,38.81-4.62,60.69,4.81,6.31,2.72,8.15,4.43,11.31,10.19l-7-4.99c2.03,1.04,4.34,14.01,2.5,14-1.19,0-.08-3.62-.51-4.02-.13-.12-2.23,1.59-2.86-.62-.37-1.3.12-4.02-.14-4.37-.09-.12-2.91-.12-2.99,0-.23.37-1.68,7.28-1.94,8.57-.37,1.9.29,4.07-.04,5.8-.11.6-3.96.96-2.02,2.63,1.5,1.29,5.93-2.54,7-4-4.62.32.41-4.85,1.99-6,.42,2.64-.55,4.04-1.99,6,1.9-.13,3.2-.94,5-.99l-6.99,5.98c2.36-.44,2.4,2.65,3.94,3.45.18.09,3.91.72,4.04.57.53-.61-1.1-4.23,1-4-.62,4.66,2.13,11.6-2.98,13.99l-2-5.99c.74,8.35.01,7.95-6.03,11.51-.57.34-3.81.89-1.97,2.48,2.27,1.96,12.3-8.76,12.99-8,1.65,1.83-3.97,4.62-1.98,6.01.27.19,3.38-3.17,1.98,3.32-.18.83-1.78.18-2.06,2.11-.13.9-.53,3.88,1.07,3.56l1-3.99c.31,4.11.32,7.01-2,10.49.16,1.25,1.77-.66,2-.5.42.28-.28,8.39,0,10.01-1.65-.42-1.03-4.17-1.49-6.04-.25-1.01-1.17-3.49-2.5-1.95-.24.28.88,6.28,1.08,7.42.66,3.74,1.68.81.23,5.38-.35,1.09-.14,2.75-.38,3.16-.06.11-1.9-1.07-2.47-.06-1.08,1.92-.48,6.57-3.46,8.6,1.56,1.99,1.6.25,2.23-.8,1.14-1.89,2.24-4.54,2.78-6.7,2.16-.08.44,4.64,1,5,.17.11,1.81-1.13,1.99-1.01,2,8.23-1.49,16.4,1.02,24.5l-3.01-1.48.99,11c-3.46,5.61-4.74,6.76-11,9-1.24.44-2.57.09-3,2-.28.12-.7-.11-1,0-1.16-1.02-2.52-1.91-1.06-3.53,1.95-2.16,4.58-.44,5.06-2.46-1.89.2-4.19-1.73-5.51-2-.73-.15-.19,3.79-3.2,4.77-.75.25-8.02,1.53-8.29,1.21-.16-.19,1.84-4-2.36-2.86-1.04.28-3.42,3.52-3.65,4.39-.06.22,4.34.86,1.01,2.98-4.69,2.98-25.8,1.2-31.86-.13-7.95-1.74-11.02-3.94-17.13-8.37,2.81.7,1.89-1.82,3.42-3.05,2-1.62,5.95-1.54,7.58-4.46l-6.49.51c-1.3-.35,1.03-2.46.49-3-1.97-1.98-2.08,4.05-3.99,1.99-.2-.21-.18-5.45.12-5.86,1.74-2.39,4.92.57,6.41.83,3.62.62,8.84-1.75,8.46,2.03-3.06,3.08-2.89,3.85-5,7,.1-.12,2.89-1.12,2.99-1s.11,2.89,0,3c-.76.76-4.57-.1-3-2-.43.64-4.26,2.28-2.99,3.99.3.4,7.3.77,8.36.7,1.14-.08,2.11-1.26,3.27-1.43,1.01-.15,2.01.74,2.78.76,1.14.04-.15-2.48,1.57-2.02.22,1.01-.31,3.56.01,4,.12.16,3.85.12,3.99-.01.73-.67-3.44-7.64-4-9-.18-.44-1.11-2.89-1-2.99.56-.51,2.26,1.41,2.97.51-2.3-4.27-.03-1.53,1.33-1.82,1-.21,1.77-1.39,3.17-1.54,3.08-.34,6.13.38,9.15.73,1.1.13,3.61.89,3.37-.88-5.46-2.02-21.49.12-25.05-3.46-2.04-2.05-2.48-6.71-5.45-8.55l1.83,7.82,1.67,1.16c-8.65,3.06-11.1-.83-17.05-5.46-1.11-.86-3.08-1.1-3.71-1.77-.57-.59-2.08-6.73-2-7.35.14-1.09,2.35-1.12,2.64-1.54.11-.16-.79-2.13-.5-3.89.28-1.67,1.03-3.88,1.5-5.66s-.78-2.8,2.12-2.34v21c1.44.2,1.55-2.73,1.72-3.78.29-1.75.41-3.46.29-5.22l2.98,3.99-3.97-13.51c2.49.09,4.27,2.59,6.69,3.31.85.25,4.29.69,4.3-.3,0-.75-3.98-1.03-5.23-1.58-1.03-.45-2.46-3.13-3.49-3.91-1.14-.87-3.45-.35-3.28-2,5.83-1.51,10.22-7.02,13.98-11.52-2.16-.23-4.07,3.98-5.49,4.51-.98.37-.01-2.39-.99-1.99-1.39.55-1.11,2.87-1.81,3.69-1.05,1.22-4.18,2.33-5.2,4.3l-1.49-3.99c.08,1.1-.63,5.7-1.04,5.98-1.87,1.3-8.13-2.69-3.47-3.47.37-.06,1.22.78,1.49.49,1.32-1.41-5.71-5.21,1-5.49l-1.01-2.5c-1.3-.57-1.05,4.18-2.99,1.99-.7-.79.11-2.82.81-3.96.09-.15,1.15-.07,1.12-.48-.36-4.64-3.83-3.27-4-4.11-.49-2.4.46-6.08.02-8.9-.58-3.75-3.36-7.7-1.94-12.55,2.25,1.11,3.6,3.45,5.48,5.02s5.16.69,4.52,4.98c6.17-4.32-2.88-4.7-4.4-7.98-1.76-3.79.8-11.14.46-13.41-.11-.71-2.09-.49-2.08-1.19.02-.98,1.21-1.95.57-3.4-.71-1.59-5.12-4.4-6.09-7.09-.73-2.02.61-3.74.49-3.89-.26-.32-1.63.16-1.96-.04-.27-.17-2.62-4.94-2.78-5.72C-2.81.41,18.74-1.79,29.09,1.09ZM21.08,8.08c.2-.19-.78-3.71-1.01-3.99-1.37-1.65-1.71,6.57,1.01,3.99ZM26.42,6.78c-.65-1.21.37-2.96-1.32-2.68-.35,2.95-.09,5.79,2.98,7,1.24-3.54-1.28-3.6-1.66-4.31ZM44.09,8.08c.51-.41-1.97-2.8-3-1.98-.51.41,1.97,2.8,3,1.98ZM47.79,10.38c-.1-.1-3.34-1.92-2.22-.3l3.95,4.06,4.55,7.93c-.97-3.6-3.7-9.12-6.29-11.7ZM31.09,12.09c-1.25.21-4.15-.89-3.99.99,1.64-.71,5.76,2.23,5.99,2.01,1.81-1.84-1.81-1.75-1.99-3,10.48-1.78,1.08-2.85,0-2-.08.06-.06,1.53,0,2ZM29.08,15.1c-2.2-1.54-4.97.32-4.99,2.99l4.99-2.99ZM11.07,15.1c-.68-.56-2.66-.16-1.97,1.48,1.07,2.56,7.9,6.51,10.99,6.5-1.18-4.36-4.94-2.89-5.81-3.25-.57-.24-2.99-4.55-3.21-4.73ZM19.09,15.1c-.12-.1-2.96-.41-3,.49,1.28,2.75,3.45-.12,3-.49ZM91.09,15.1c-2.09-.28-2.27-.1-1.99,1.99l1.99-1.99ZM46.08,16.1c-2.38-.26-4.53.08-6.82.71-1.77.49-2.6-.33-2.17,2.28l8.99-2.99ZM28.08,22.08c.57-1.19-.61-2.27-1.5-2.98-.43,1,1.03,3.95,1.5,2.98ZM32.08,26.09c.46-.53-1.3-6.82-2.98-7-.39,1.55,1.04,3.25,1.06,4.43.02,1.12-2.51-.17-2.06,1.55,1.21-.46,3.85,1.17,3.99,1.01ZM25.08,20.09c-2.82-2.78-2.82,7.77,0,4.99.18-.17.18-4.82,0-4.99ZM63.08,22.09c-.25-.25-6.98-.66-6.99.99,1.24-.57,9.97,1.99,6.99-.99ZM47.09,26.09c1.37-.19,4.99.94,4.99-.99-1.74.53-5.85-3.03-6.99-2.01-1.49,1.34,1.37,2.05,2,3-1.03.15-3.61.99-2.99,1.98.04.07.9-.18,1.57.44.62.57,1.88,3.13,3.42,1.58-.84.58-1.67,2.84-3.7,2.8-5.67-.11-11.02,1.74-16.72,1.11-.96-.1-3.75-.44-3.57-1.9,1.36-.34,5.38,1.59,5.99.99.5-.49-.03-4.45-1.5-4.99-.87-.32-.07,1.77-1.12,2.03-2.22.56-8.57-1.09-8.39-4.03-1.75-.52-.48,2.42-1.49,1.99-.44-.19-.87-1.22-2-1.49-2.16-.51-5.11-.48-7.51-1.5.6,3.31,6.6,4.77,7.51,6.03.69.95.28,2.62.51,2.97s6.1-1.64,7.98,0c.07,1.48-4.44,1.67-5.35,1.63-.8-.03-2.24-.32-2.91-.67-.73-.38-1.05-3.68-2.72-1.97-1.08,1.1,1.12,12.49,1,14.99,1.62.38.41-1.51,1.78-1.97.76-.26,1.84.13,2.22-.03.49-.21-1.39-3.48-1.01-3.98.16-.21,3.46-.63,4-1.02,1.31-.95-3.54-.65-1.97-2.97.09-.14,2.23-.32,2.57-2.06l6.92,2.05-1.5-2c11.14.95,18.12,1.29,25.51-7.99,1.04-1.3,1.52-2.57-.5-1.49-.45,1.96-2.54,2.46-4.02,3.47,1.8-1.82-1.45-1.95-1.75-2.23-.58-.55-.11-1.55-.25-1.77ZM88.07,30.09l1-6.99c-1.36-.06-2.04,3.23-2.29,4.26-.39,1.63-.87,2.04,1.28,2.73ZM66.42,27.73c-.63-.64-.98-3.09-2.31-2.15.25,1.76,8.73,10.19,6.98,11.5-.94.71-6.83.87-8.49,1.03-1.95.19-2.93-.92-2.5,1.97l26.99-5.01c.17-1.84-3.29-1-4.37-.87-2.35.29-8.66,2.67-9.13,2.65-1.93-.1-3.28-5.18-4.26-6.51-1.1-1.51-1.96-1.67-2.9-2.61ZM38.09,30.08l-1.99-1.99c-.28,2.09-.1,2.27,1.99,1.99ZM91.08,35.1l-20.24,5.05c-2.5,2.18-3.96,3.45-6.23,5.96-.61.68-2.18.77-2.43,1.13-.41.58,1.43,12.33-1.6,13.84-1.91.95-1.4-.94-1.1-2.1.36-1.38,2.41-7.13,1.61-7.89-.41-.39-9.03.64-10.27,1.05-.88.29-.68,1.76-1.4,1.93-1.61.38-3.62-.17-5.32.02.17,1.43,4.38,1.7,5.62,1.87,1.17.16,4.22-.03,4.38.12.6.55-.91,3.88-1.01,4.99-1.67.44-.42-1.79-1.61-2.05-2.29-.5-4.91,1.22-7.61.88-2.97-.37-7.05-3.27-9.49-3.63-2.09-.31-4.03,1.81-5.78-1.19-.32,6.22-3.71.37-7.49,1.49,3.2,1.88,12.22,6.32,15.57,6.45,4.95.19,12.65-.9,17.88-1,5.51-.1,11.04.18,16.54.04-.57-3.11-3.83-.84-4-.98-.43-.36-2.17-10.24-1.58-11.06,1.8-2.45,6.32-.72,6.57-.96.44-.43-1.44-2.77-.58-4,1.57-2.24,6.61-2.36,8.56-3.57.72-.45,4.57-6.86,5.59-1.42.22,1.19-1.07,6.56,1.44,3.99.26-.27-.33-3.89.15-5.35.58-1.75,3.45-1.75,3.85-3.64ZM43.59,42.09c6.57.59,13.85-.43,20.5,0,.22-1.76-2.26-.95-3.49-1-8.24-.35-15.82.32-23.99-2.03-2.91-.27-.93,1.61.19,1.82,1.76.33,5.35,1.08,6.79,1.21ZM91.08,39.09c-1.09-1.09-3.08.9-1.99,1.99s3.08-.9,1.99-1.99ZM28.08,42.08c-2.09-2.57-4.27,3.81-4,4,.17.12,3.87,1.17,4,1.01.16-.19.16-4.81,0-5ZM84.07,73.08l1-6.99c-1.51.07-3.06,6.94-1,6.99ZM94.08,78.09l-1.34-4.15-5.64-7.84,2.33,6.19,4.66,5.8ZM61.08,91.08l.68-9.35-2.66-7.65c-1.06,4.8-.64,9.41.25,14.25.17.93.4,3,1.73,2.75ZM82.08,75.09c-1.92-2.14-7.16,9.64-7.99,10.5l-9,8.49c1.53.1,2.97-.22,4.31-.99,4.26-2.45,6.43-7.47,9.25-10.01,1-.9,2.55-.13,2.97-.89.6-1.09.76-6.77.46-7.1ZM59.08,95.1c-1.68-.42-3.36.68-4.78.75-.6.03-7.36-1.45-4.21,1.24.36.31,8.8.42,8.99-1.99ZM61.09,116.09v-15.5c0-.58,1.89-3.42.99-4.5-1.58-1.9-2.98,9.09-3.03,10.45-.09,2.61-.63,8.22,2.04,9.55ZM70.38,103.79c-1.73-1.58-3.35-5.7-6.28-6.7-.65,3.04,11.16,13.97,11.98,13,2.45-2.89-4.79-5.47-5.7-6.3ZM84.08,107.08c-.05-2.15.11-4.35,0-6.51-.06-1.22.76-3.72-.99-3.49.05,2.15-.11,4.35,0,6.51.06,1.22-.76,3.72.99,3.49ZM100.08,105.08c.7-1.54-.49-4.08-.98-2.99-.7,1.54.49,4.08.98,2.99ZM96.09,108.1c-1.09-.97-8.76,4.49-9.54,6.45-1.04,2.6.56,7.08.37,7.4-.07.12-1.29.11-1.8.86-4.08,5.93,3.28.85,4.97,2.29,1.92,1.64-3.95,3.21-2.99,3.99.24.19,5.76-.81,6-1,1.19-.89-3.26-4.64-1.51-5.99,1.88,2.57,5.46,5.37,1.9,7.9-1.14.81-3.51.47-3.39,2.09,3.15,1.44,10.11-6.42,8-7.98-.94-.7-5.28.38-6-3.51-.11-.6,2.3-.51,3.46-1.51,2.13-1.82,5.25-8.9,3.53-10.98-.49-.59-3.68,4.2-4.99,2.99-.51-.48,2.52-2.52,2-2.98ZM88.59,109.09v1c.65-.33.65-.67,0-1ZM84.08,114.1c-1.54-.7-4.08.49-2.99.98,1.54.7,4.08-.49,2.99-.98ZM81.96,121.96c.26-.18,2.14-4.86,2.12-5.87l-4.98,4.51c-.68,2.13,2.19,1.83,2.87,1.36ZM72.08,117.1c-2.22-.07-4.4.51-6.55.98-1.73.38-2.92-1-2.45,2,1.51.34,2.07.73,3.68.27.96-.28,4.97-2.05,5.32-3.25ZM82.08,129.09c.16-.19.35-4.48-.49-5-5.3,1.51-1.52,7.41.49,5ZM58.08,133.09c-3.34-1.73-6.51-1.94-9.5-4.98-.49,1.42,2.37,3.07,3.35,3.64,1.56.9,3.87,1.16,4.16,1.35.34.22-2.86,6.69-5,6-.29,1.46,3.72,1.49,4.5,1.45,4.14-.25,6.52-1.04,5.52-5.84-.12-.57-3.97-.98-2.02-2.62,1.49-1.25,7.59,2.22,7.92,1.97.27-.2,3.37-5.7,3.07-5.97-.51-.47-12.4.51-12.99,1-.23.19,1.55,2.8.99,3.99ZM49.08,136.09c.82-1.03-1.58-3.51-1.98-3-.82,1.03,1.58,3.51,1.98,3ZM50.08,139.1l-12.98-2.52c1.66,1.74,4.42,2.8,6.72,3.27,1.18.24,6.06,1.19,6.26-.76Z"/>
      <path class="cls-2" d="M34.09,121.09c1-1.01,1.65-2.61,2.99-3-1.77,6.11,4.52,6.21,5.01,7,.83,1.35.14,2.05-1.52,2.04-1.1,0-8.16-.75-8.47-1.04-.73-.68,1.83-3.29,2-5Z"/>
      <path class="cls-2" d="M6.09,117.09c.1-.86,1.91-3.06,1-5l2.99,3c1.22-4.54-2.05-7.87-2.84-11.66-.41-1.94.26-1.33,1.84-1.33.24,1.82,1.53,6.9,2.49,8.02,1.43,1.66,4.08.67,4.52.99.64.46-1.4,3.76-1.5,4.84-.13,1.51.6,3.02.52,4.59s-1.48,4.69-1.03,5.55c.23.43,5.89-2.79,3.99,6-2.35-1.7-4.01-2.05-6.01-3.01-.14-.07.97-1.66.59-3-.18-.66-3.73-6.8-4.09-6.99-.55-.29-.33,2.96-2.5,2-.1-1.16-.14-2.87,0-4Z"/>
      <path class="cls-1" d="M3.09,21.09c.33.2,1.7-.28,1.96.04.12.15-1.22,1.87-.49,3.89.97,2.69,5.38,5.49,6.09,7.09.65,1.44-.55,2.42-.57,3.4-.01.7,1.97.48,2.08,1.19.34,2.28-2.23,9.62-.46,13.41,1.53,3.28,10.57,3.66,4.4,7.98.63-4.29-2.63-3.41-4.52-4.98s-3.23-3.91-5.48-5.02c-1.42,4.85,1.36,8.8,1.94,12.55.44,2.82-.51,6.5-.02,8.9.17.85,3.64-.53,4,4.11.03.4-1.03.32-1.12.48-.7,1.14-1.51,3.16-.81,3.96,1.94,2.19,1.68-2.56,2.99-1.99l1.01,2.5c-6.72.29.32,4.08-1,5.49-.27.29-1.12-.55-1.49-.49-4.66.78,1.6,4.77,3.47,3.47.4-.28,1.12-4.88,1.04-5.98l1.49,3.99c1.02-1.97,4.16-3.08,5.2-4.3.7-.82.42-3.14,1.81-3.69.98-.39,0,2.36.99,1.99,1.42-.53,3.33-4.73,5.49-4.51-3.76,4.5-8.15,10.01-13.98,11.52-.16,1.65,2.14,1.13,3.28,2,1.03.78,2.46,3.46,3.49,3.91,1.25.55,5.24.83,5.23,1.58-.01.99-3.46.55-4.3.3-2.41-.72-4.19-3.21-6.69-3.31l3.97,13.51-2.98-3.99c.12,1.76,0,3.47-.29,5.22-.17,1.04-.28,3.98-1.72,3.78v-21c-2.89-.46-1.66.62-2.12,2.34s-1.22,3.99-1.5,5.66c-.3,1.76.61,3.73.5,3.89-.29.41-2.5.44-2.64,1.54-.08.62,1.44,6.75,2,7.35.63.66,2.6.91,3.71,1.77,5.94,4.62,8.39,8.51,17.05,5.46l-1.67-1.16-1.83-7.82c2.97,1.84,3.42,6.5,5.45,8.55,3.56,3.58,19.59,1.44,25.05,3.46.23,1.77-2.28,1.01-3.37.88-3.02-.36-6.07-1.07-9.15-.73-1.4.15-2.17,1.33-3.17,1.54-1.35.29-3.63-2.45-1.33,1.82-.71.9-2.41-1.02-2.97-.51-.12.11.82,2.55,1,2.99-.49-.79-6.78-.89-5.01-7-1.34.39-1.99,1.99-2.99,3,.38-3.78-4.84-1.41-8.46-2.03-1.5-.26-4.67-3.22-6.41-.83-.3.41-.32,5.64-.12,5.86,1.91,2.06,2.02-3.97,3.99-1.99.54.54-1.79,2.64-.49,3l6.49-.51c-1.62,2.92-5.57,2.84-7.58,4.46-1.53,1.23-.61,3.75-3.42,3.05,1.9-8.79-3.76-5.57-3.99-6-.46-.86.95-4.01,1.03-5.55s-.66-3.09-.52-4.59c.1-1.09,2.13-4.38,1.5-4.84-.45-.32-3.09.67-4.52-.99-.96-1.11-2.25-6.2-2.49-8.02-1.58,0-2.25-.61-1.84,1.33.79,3.79,4.06,7.12,2.84,11.66l-2.99-3c.91,1.95-.9,4.14-1,5L3.09,21.09ZM7.08,74.08l-1.98-14.99c.08,3.45-.22,6.93.1,10.38.09.98.44,4.71,1.88,4.61ZM9.08,80.09c-1.54-1.51-3.31,1.42-.49,2.99.88-.04.6-2.89.49-2.99ZM9.29,91.94c-.51-.63,2.1-3.08-.19-2.84-1.7,3.38-2.56,6.08-2.01,9.99,1.97.75,3.4-2.59,3.75-3.74,1.23-4.04-1.11-2.86-1.55-3.4Z"/>
      <path class="cls-1" d="M34.09,121.09c-.17,1.71-2.73,4.32-2,5,.31.29,7.37,1.03,8.47,1.04,1.67.01,2.36-.69,1.52-2.04.56,1.35,4.72,8.32,4,9-.15.14-3.87.17-3.99.01-.32-.44.21-3-.01-4-1.72-.46-.43,2.06-1.57,2.02-.77-.03-1.77-.91-2.78-.76-1.16.17-2.13,1.35-3.27,1.43-1.06.07-8.06-.29-8.36-.7-1.27-1.71,2.57-3.36,2.99-3.99-1.58,1.89,2.24,2.75,3,2,.11-.11.09-2.88,0-3-.1-.12-2.89.88-2.99,1,2.11-3.15,1.94-3.92,5-7Z"/>
      <path class="cls-1" d="M6.09,121.09c2.17.96,1.94-2.29,2.5-2,.36.19,3.9,6.33,4.09,6.99.37,1.33-.73,2.93-.59,3,2,.96,3.66,1.31,6.01,3.01,6.11,4.42,9.19,6.63,17.13,8.37,6.07,1.33,27.18,3.11,31.86.13,3.34-2.12-1.07-2.75-1.01-2.98.22-.87,2.61-4.11,3.65-4.39,4.2-1.13,2.2,2.67,2.36,2.86.27.32,7.53-.96,8.29-1.21,3.01-.98,2.48-4.92,3.2-4.77,1.32.27,3.62,2.2,5.51,2-.48,2.01-3.11.29-5.06,2.46-1.46,1.62-.09,2.51,1.06,3.53-3.6,1.34-5.74,2.6-10,3,1.52-2.11,1.34-2.4-1.5-2.01-1.1.15-.2,1.5-.5,2.01-1.26,2.07-22.01,3.33-25.54,3.04-5.82-.47-16.66-2.87-22.25-4.76-8.51-2.88-18.35-8.53-19.22-18.28Z"/>
      <path class="cls-1" d="M95.09,30.09c-1.07,1.45-5.5,5.28-7,4-1.93-1.66,1.91-2.03,2.02-2.63.33-1.73-.33-3.9.04-5.8.25-1.3,1.7-8.2,1.94-8.57.08-.13,2.91-.12,2.99,0,.25.36-.23,3.07.14,4.37.63,2.22,2.73.5,2.86.62.43.4-.68,4.01.51,4.02,1.84.01-.47-12.96-2.5-14l7,4.99c.19.34,1.87.48,2.07,2.56.14,1.51-1.04,2.2-1.07,2.44l-4,5.99,4-3.99c2.05,14.32-.72,29.82-1.04,44.46-.36,16.45,1.66,36.19.05,52.05-.43,4.26-1.46,4-3,6.5l-.99-11,3.01,1.48c-2.51-8.1.98-16.26-1.02-24.5-.17-.12-1.81,1.13-1.99,1.01-.55-.36,1.16-5.08-1-5-.54,2.16-1.64,4.81-2.78,6.7-.63,1.05-.66,2.78-2.23.8,2.98-2.03,2.38-6.68,3.46-8.6.57-1.01,2.41.16,2.47.06.23-.41.03-2.07.38-3.16,1.45-4.56.43-1.63-.23-5.38-.2-1.14-1.33-7.13-1.08-7.42,1.32-1.54,2.25.94,2.5,1.95.46,1.87-.16,5.63,1.49,6.04-.28-1.62.42-9.73,0-10.01-.23-.16-1.85,1.75-2,.5,2.32-3.48,2.31-6.37,2-10.49l-1,3.99c-1.6.32-1.2-2.66-1.07-3.56.28-1.93,1.88-1.28,2.06-2.11,1.4-6.49-1.71-3.13-1.98-3.32-1.99-1.39,3.63-4.18,1.98-6.01-.69-.77-10.72,9.95-12.99,8-1.83-1.59,1.4-2.14,1.97-2.48,6.05-3.56,6.77-3.17,6.03-11.51l2,5.99c5.11-2.39,2.36-9.33,2.98-13.99-2.1-.23-.47,3.39-1,4-.13.15-3.86-.48-4.04-.57-1.55-.8-1.58-3.89-3.94-3.45l6.99-5.98c-1.8.05-3.1.86-5,.99,1.44-1.96,2.41-3.36,1.99-6-1.58,1.15-6.62,6.32-1.99,6Z"/>
      <path class="cls-2" d="M104.09,24.09l-4,3.99,4-5.99c-.08.55-.08,1.45,0,2Z"/>
      <path class="cls-2" d="M73.09,141.09c.31-.51-.59-1.85.5-2.01,2.83-.4,3.01-.1,1.5,2.01-.66.06-1.34-.04-2,0Z"/>
      <path class="cls-1" d="M89.09,136.09c-.41,1.91-1.85,1.53-3,2,.43-1.91,1.76-1.56,3-2Z"/>
      <path class="cls-1" d="M31.09,2.09c-.84-.06-1.78,0-2-1,.77.21,1.66-.03,2,1Z"/>
      <path class="cls-1" d="M91.08,35.1c-.4,1.88-3.27,1.89-3.85,3.64-.48,1.46.11,5.08-.15,5.35-2.5,2.57-1.22-2.8-1.44-3.99-1.02-5.45-4.86.97-5.59,1.42-1.95,1.2-6.98,1.33-8.56,3.57-.86,1.23,1.02,3.57.58,4-.25.24-4.77-1.49-6.57.96-.6.81,1.14,10.7,1.58,11.06.17.14,3.43-2.13,4,.98-5.5.14-11.04-.14-16.54-.04s-12.93,1.19-17.88,1c-3.35-.13-12.37-4.57-15.57-6.45,3.78-1.12,7.17,4.73,7.49-1.49,1.75,3.01,3.68.89,5.78,1.19,2.44.36,6.52,3.26,9.49,3.63,2.71.34,5.32-1.38,7.61-.88,1.19.26-.06,2.49,1.61,2.05.1-1.1,1.61-4.43,1.01-4.99-.16-.15-3.21.04-4.38-.12-1.24-.17-5.45-.44-5.62-1.87,1.7-.19,3.72.36,5.32-.02.72-.17.52-1.64,1.4-1.93,1.24-.41,9.86-1.44,10.27-1.05.8.76-1.25,6.51-1.61,7.89-.3,1.15-.81,3.05,1.1,2.1,3.04-1.51,1.19-13.26,1.6-13.84.26-.36,1.82-.45,2.43-1.13,2.27-2.52,3.73-3.79,6.23-5.96l20.24-5.05Z"/>
      <path class="cls-1" d="M47.09,26.09c-.62-.95-3.49-1.66-2-3,1.14-1.03,5.25,2.53,6.99,2.01,0,1.93-3.62.8-4.99.99.15.22-.33,1.22.25,1.77.3.28,3.55.41,1.75,2.23,1.48-1.01,3.57-1.51,4.02-3.47,2.02-1.09,1.54.19.5,1.49-7.39,9.28-14.37,8.94-25.51,7.99l1.5,2-6.92-2.05c-.33,1.74-2.47,1.92-2.57,2.06-1.56,2.32,3.29,2.02,1.97,2.97-.53.39-3.84.81-4,1.02-.38.51,1.49,3.77,1.01,3.98-.37.16-1.45-.23-2.22.03-1.37.46-.16,2.35-1.78,1.97.11-2.51-2.09-13.89-1-14.99,1.67-1.71,1.99,1.59,2.72,1.97.68.35,2.12.64,2.91.67.92.03,5.43-.15,5.35-1.63-1.88-1.64-7.77.34-7.98,0s.19-2.02-.51-2.97c-.91-1.26-6.91-2.71-7.51-6.03,2.4,1.02,5.34.99,7.51,1.5,1.13.26,1.56,1.3,2,1.49,1,.43-.26-2.51,1.49-1.99-.18,2.94,6.17,4.59,8.39,4.03,1.05-.26.25-2.35,1.12-2.03,1.46.54,2,4.5,1.5,4.99-.61.6-4.63-1.32-5.99-.99-.18,1.46,2.61,1.8,3.57,1.9,5.7.62,11.05-1.23,16.72-1.11,2.03.05,2.86-2.22,3.7-2.8-1.54,1.55-2.8-1.01-3.42-1.58-.67-.62-1.53-.37-1.57-.44-.62-1,1.96-1.84,2.99-1.98ZM18.09,37.1c-1.88-1.59-4.46,1.53-3,2.99,1.54,1.52,3.19-2.82,3-2.99Z"/>
      <path class="cls-1" d="M96.09,108.1c.52.47-2.51,2.51-2,2.98,1.31,1.21,4.5-3.58,4.99-2.99,1.73,2.09-1.4,9.16-3.53,10.98-1.16,1-3.57.91-3.46,1.51.72,3.89,5.06,2.81,6,3.51,2.11,1.57-4.85,9.42-8,7.98-.13-1.62,2.25-1.28,3.39-2.09,3.56-2.53-.01-5.32-1.9-7.9-1.75,1.35,2.7,5.11,1.51,5.99-.24.18-5.77,1.19-6,1-.95-.78,4.92-2.34,2.99-3.99-1.69-1.44-9.05,3.64-4.97-2.29.51-.74,1.73-.73,1.8-.86.2-.32-1.4-4.8-.37-7.4.78-1.96,8.45-7.42,9.54-6.45ZM93.92,117.93c1.1-.7,1.66-5.7-.33-5.82-.29-.02-3.8,2.74-5.51,1.99,2.71,5.83-1.07,2.79-.98,3.48.21,1.66,5.98.88,6.81.35Z"/>
      <path class="cls-1" d="M58.08,133.09c.56-1.19-1.22-3.8-.99-3.99.59-.49,12.49-1.47,12.99-1,.3.28-2.8,5.77-3.07,5.97-.33.25-6.44-3.23-7.92-1.97-1.94,1.64,1.91,2.05,2.02,2.62.99,4.79-1.38,5.58-5.52,5.84-.78.05-4.79.02-4.5-1.45,2.14.69,5.34-5.78,5-6-.29-.19-2.61-.45-4.16-1.35-.98-.57-3.84-2.22-3.35-3.64,2.99,3.04,6.16,3.25,9.5,4.98Z"/>
      <path class="cls-1" d="M82.08,75.09c.3.33.14,6.02-.46,7.1-.42.76-1.98-.01-2.97.89-2.82,2.54-4.99,7.57-9.25,10.01-1.34.77-2.77,1.08-4.31.99l9-8.49c.84-.86,6.08-12.63,7.99-10.5Z"/>
      <path class="cls-1" d="M66.42,27.73c.93.94,1.79,1.1,2.9,2.61.98,1.34,2.33,6.42,4.26,6.51.47.02,6.78-2.36,9.13-2.65,1.09-.13,4.54-.97,4.37.87l-26.99,5.01c-.43-2.89.56-1.79,2.5-1.97,1.67-.16,7.55-.32,8.49-1.03,1.75-1.32-6.73-9.74-6.98-11.5,1.33-.93,1.68,1.52,2.31,2.15Z"/>
      <path class="cls-1" d="M61.09,116.09c-2.68-1.32-2.14-6.94-2.04-9.55.05-1.37,1.46-12.35,3.03-10.45.9,1.08-.99,3.92-.99,4.5v15.5Z"/>
      <path class="cls-1" d="M43.59,42.09c-1.44-.13-5.03-.88-6.79-1.21-1.12-.21-3.1-2.09-.19-1.82,8.17,2.35,15.75,1.68,23.99,2.03,1.23.05,3.72-.76,3.49,1-6.65-.43-13.93.59-20.5,0Z"/>
      <path class="cls-1" d="M61.08,91.08c-1.33.26-1.56-1.82-1.73-2.75-.89-4.84-1.31-9.44-.25-14.25l2.66,7.65-.68,9.35Z"/>
      <path class="cls-1" d="M70.38,103.79c.91.83,8.15,3.41,5.7,6.3-.82.97-12.64-9.96-11.98-13,2.93,1,4.56,5.12,6.28,6.7Z"/>
      <path class="cls-1" d="M11.07,15.1c.22.18,2.64,4.49,3.21,4.73.87.37,4.63-1.11,5.81,3.25-3.09,0-9.92-3.95-10.99-6.5-.69-1.64,1.29-2.04,1.97-1.48Z"/>
      <path class="cls-1" d="M72.08,117.1c-.35,1.2-4.35,2.97-5.32,3.25-1.61.47-2.17.07-3.68-.27-.47-3,.71-1.62,2.45-2,2.14-.47,4.33-1.05,6.55-.98Z"/>
      <path class="cls-1" d="M50.08,139.1c-.2,1.95-5.08,1-6.26.76-2.29-.48-5.06-1.53-6.72-3.27l12.98,2.52Z"/>
      <path class="cls-1" d="M28.08,42.08c.16.19.16,4.81,0,5-.13.16-3.83-.89-4-1.01-.27-.18,1.91-6.57,4-4Z"/>
      <path class="cls-1" d="M81.96,121.96c-.68.47-3.54.77-2.87-1.36l4.98-4.51c.02,1.01-1.86,5.7-2.12,5.87Z"/>
      <path class="cls-1" d="M46.08,16.1l-8.99,2.99c-.44-2.61.4-1.79,2.17-2.28,2.29-.64,4.44-.97,6.82-.71Z"/>
      <path class="cls-1" d="M82.08,129.09c-2.01,2.41-5.79-3.49-.49-5,.84.52.65,4.81.49,5Z"/>
      <path class="cls-1" d="M59.08,95.1c-.19,2.4-8.63,2.3-8.99,1.99-3.14-2.69,3.61-1.21,4.21-1.24,1.42-.07,3.1-1.16,4.78-.75Z"/>
      <path class="cls-1" d="M32.08,26.09c-.13.16-2.78-1.47-3.99-1.01-.46-1.72,2.08-.44,2.06-1.55-.02-1.18-1.44-2.88-1.06-4.43,1.69.18,3.44,6.46,2.98,7Z"/>
      <path class="cls-1" d="M26.42,6.78c.39.71,2.9.77,1.66,4.31-3.08-1.21-3.33-4.04-2.98-7,1.69-.28.67,1.48,1.32,2.68Z"/>
      <path class="cls-1" d="M88.07,30.09c-2.15-.69-1.67-1.11-1.28-2.73.24-1.03.92-4.32,2.29-4.26l-1,6.99Z"/>
      <path class="cls-1" d="M25.08,20.09c.18.17.18,4.82,0,4.99-2.82,2.78-2.82-7.77,0-4.99Z"/>
      <path class="cls-1" d="M84.08,107.08c-1.75.23-.93-2.26-.99-3.49-.1-2.16.06-4.35,0-6.51,1.75-.23.93,2.26.99,3.49.1,2.16-.06,4.35,0,6.51Z"/>
      <polygon class="cls-1" points="94.08 78.09 89.42 72.29 87.09 66.09 92.74 73.94 94.08 78.09"/>
      <path class="cls-1" d="M84.07,73.08c-2.06-.05-.5-6.92,1-6.99l-1,6.99Z"/>
      <path class="cls-1" d="M63.08,22.09c2.98,2.98-5.76.42-6.99.99,0-1.65,6.74-1.24,6.99-.99Z"/>
      <path class="cls-1" d="M31.09,12.09c-.07-.47-.08-1.93,0-2,1.09-.86,10.49.22,0,2,.18,1.25,3.8,1.16,1.99,3-.22.23-4.35-2.72-5.99-2.01-.16-1.88,2.75-.78,3.99-.99Z"/>
      <path class="cls-1" d="M21.08,8.08c-2.72,2.58-2.38-5.64-1.01-3.99.23.27,1.21,3.8,1.01,3.99Z"/>
      <path class="cls-1" d="M19.09,15.1c.45.37-1.72,3.24-3,.49.04-.89,2.88-.58,3-.49Z"/>
      <path class="cls-1" d="M91.08,39.09c1.09,1.09-.9,3.08-1.99,1.99s.9-3.08,1.99-1.99Z"/>
      <path class="cls-1" d="M29.08,15.1l-4.99,2.99c.02-2.66,2.78-4.53,4.99-2.99Z"/>
      <path class="cls-1" d="M44.09,8.08c-1.03.82-3.51-1.58-3-1.98,1.03-.82,3.51,1.58,3,1.98Z"/>
      <path class="cls-1" d="M49.08,136.09c-.41.51-2.8-1.97-1.98-3,.41-.51,2.8,1.97,1.98,3Z"/>
      <path class="cls-1" d="M84.08,114.1c1.09.49-1.45,1.68-2.99.98-1.09-.49,1.45-1.68,2.99-.98Z"/>
      <path class="cls-1" d="M100.08,105.08c-.49,1.09-1.68-1.45-.98-2.99.49-1.09,1.68,1.45.98,2.99Z"/>
      <path class="cls-1" d="M91.09,15.1l-1.99,1.99c-.28-2.09-.1-2.27,1.99-1.99Z"/>
      <path class="cls-1" d="M47.79,10.38c2.58,2.58,5.31,8.1,6.29,11.7l-4.55-7.93-3.95-4.06c-1.12-1.63,2.12.2,2.22.3Z"/>
      <path class="cls-1" d="M38.09,30.08c-2.09.28-2.27.1-1.99-1.99l1.99,1.99Z"/>
      <path class="cls-1" d="M28.08,22.08c-.47.97-1.93-1.98-1.5-2.98.89.71,2.07,1.78,1.5,2.98Z"/>
      <path class="cls-1" d="M88.59,109.09c.65.33.65.67,0,1v-1Z"/>
      <path class="cls-2" d="M9.29,91.94c.44.54,2.78-.64,1.55,3.4-.35,1.15-1.78,4.49-3.75,3.74-.56-3.91.3-6.61,2.01-9.99,2.29-.23-.32,2.21.19,2.84Z"/>
      <path class="cls-2" d="M7.08,74.08c-1.44.11-1.79-3.63-1.88-4.61-.32-3.45-.03-6.94-.1-10.38l1.98,14.99Z"/>
      <path class="cls-2" d="M9.08,80.09c.11.11.39,2.95-.49,2.99-2.82-1.57-1.05-4.5.49-2.99Z"/>
      <path class="cls-2" d="M18.09,37.1c.2.17-1.46,4.51-3,2.99s1.11-4.58,3-2.99Z"/>
      <path class="cls-2" d="M93.92,117.93c-.84.53-6.6,1.31-6.81-.35-.09-.7,3.69,2.35.98-3.48,1.71.75,5.22-2,5.51-1.99,1.99.12,1.43,5.12.33,5.82Z"/>
    </g>
  </g>
</svg>