<?xml version="1.0" encoding="UTF-8"?>
<svg id="Layer_2" data-name="Layer 2" xmlns="http://www.w3.org/2000/svg" viewBox="0 0 620.36 187.98">
  <defs>
    <style>
      .cls-1 {
        fill: #f3e3d7;
      }

      .cls-2 {
        fill: #be7860;
      }
    </style>
  </defs>
  <g id="Layer_2-2" data-name="Layer 2">
    <g id="Layer_1-2" data-name="Layer 1-2">
      <g>
        <path class="cls-1" d="M37.93,1.44c.29,1.32,1.51,1.23,2.61,1.3,27.63,1.99,50.6-6.02,79.12,6.27,8.23,3.55,10.63,5.78,14.75,13.29l-9.13-6.51c2.65,1.36,5.66,18.27,3.26,18.25-1.55,0-.1-4.72-.66-5.24-.17-.16-2.91,2.07-3.73-.81-.48-1.69.16-5.24-.18-5.7-.12-.16-3.79-.16-3.9,0-.3.48-2.19,9.49-2.53,11.17-.48,2.48.38,5.31-.05,7.56-.14.78-5.16,1.25-2.63,3.43,1.96,1.68,7.73-3.31,9.13-5.21-6.02.42.53-6.32,2.59-7.82.55,3.44-.72,5.27-2.59,7.82,2.48-.17,4.17-1.23,6.52-1.29l-9.11,7.8c3.08-.57,3.13,3.45,5.14,4.5.23.12,5.1.94,5.27.74.69-.8-1.43-5.51,1.3-5.21-.81,6.08,2.78,15.12-3.89,18.24l-2.61-7.81c.96,10.89.01,10.36-7.86,15.01-.74.44-4.97,1.16-2.57,3.23,2.96,2.56,16.04-11.42,16.94-10.43,2.15,2.39-5.18,6.02-2.58,7.84.35.25,4.41-4.13,2.58,4.33-.23,1.08-2.32.23-2.69,2.75-.17,1.17-.69,5.06,1.4,4.64l1.3-5.2c.4,5.36.42,9.14-2.61,13.68.21,1.63,2.31-.86,2.61-.65.55.37-.37,10.94,0,13.05-2.15-.55-1.34-5.44-1.94-7.87-.33-1.32-1.53-4.55-3.26-2.54-.31.37,1.15,8.19,1.41,9.67.86,4.88,2.19,1.06.3,7.01-.46,1.42-.18,3.59-.5,4.12-.08.14-2.48-1.4-3.22-.08-1.41,2.5-.63,8.57-4.51,11.21,2.03,2.59,2.09.33,2.91-1.04,1.49-2.46,2.92-5.92,3.62-8.74,2.82-.1.57,6.05,1.3,6.52.22.14,2.36-1.47,2.59-1.32,2.61,10.73-1.94,21.38,1.33,31.94l-3.92-1.93,1.29,14.34c-4.51,7.31-6.18,8.81-14.34,11.73-1.62.57-3.35.12-3.91,2.61-.37.16-.91-.14-1.3,0-1.51-1.33-3.29-2.49-1.38-4.6,2.54-2.82,5.97-.57,6.6-3.21-2.46.26-5.46-2.26-7.18-2.61-.95-.2-.25,4.94-4.17,6.22-.98.33-10.46,1.99-10.81,1.58-.21-.25,2.4-5.21-3.08-3.73-1.36.37-4.46,4.59-4.76,5.72-.08.29,5.66,1.12,1.32,3.89-6.11,3.89-33.64,1.56-41.54-.17-10.36-2.27-14.37-5.14-22.33-10.91,3.66.91,2.46-2.37,4.46-3.98,2.61-2.11,7.76-2.01,9.88-5.81l-8.46.66c-1.69-.46,1.34-3.21.64-3.91-2.57-2.58-2.71,5.28-5.2,2.59-.26-.27-.23-7.11.16-7.64,2.27-3.12,6.41.74,8.36,1.08,4.72.81,11.53-2.28,11.03,2.65-3.99,4.02-3.77,5.02-6.52,9.13.13-.16,3.77-1.46,3.9-1.3s.14,3.77,0,3.91c-.99.99-5.96-.13-3.91-2.61-.56.83-5.55,2.97-3.9,5.2.39.52,9.52,1,10.9.91,1.49-.1,2.75-1.64,4.26-1.86,1.32-.2,2.62.96,3.62.99,1.49.05-.2-3.23,2.05-2.63.29,1.32-.4,4.64.01,5.21.16.21,5.02.16,5.2-.01.95-.87-4.48-9.96-5.21-11.73-.23-.57-1.45-3.77-1.3-3.9.73-.66,2.95,1.84,3.87.66-3-5.57-.04-1.99,1.73-2.37,1.3-.27,2.31-1.81,4.13-2.01,4.02-.44,7.99.5,11.93.95,1.43.17,4.71,1.16,4.39-1.15-7.12-2.63-28.02.16-32.66-4.51-2.66-2.67-3.23-8.75-7.11-11.15l2.39,10.2,2.18,1.51c-11.28,3.99-14.47-1.08-22.23-7.12-1.45-1.12-4.02-1.43-4.84-2.31-.74-.77-2.71-8.77-2.61-9.58.18-1.42,3.06-1.46,3.44-2.01.14-.21-1.03-2.78-.65-5.07.37-2.18,1.34-5.06,1.96-7.38s-1.02-3.65,2.76-3.05v27.38c1.88.26,2.02-3.56,2.24-4.93.38-2.28.53-4.51.38-6.81l3.89,5.2-5.18-17.61c3.25.12,5.57,3.38,8.72,4.32,1.11.33,5.59.9,5.61-.39,0-.98-5.19-1.34-6.82-2.06-1.34-.59-3.21-4.08-4.55-5.1-1.49-1.13-4.5-.46-4.28-2.61,7.6-1.97,13.32-9.15,18.23-15.02-2.82-.3-5.31,5.19-7.16,5.88-1.28.48-.01-3.12-1.29-2.59-1.81.72-1.45,3.74-2.36,4.81-1.37,1.59-5.45,3.04-6.78,5.61l-1.94-5.2c.1,1.43-.82,7.43-1.36,7.8-2.44,1.69-10.6-3.51-4.52-4.52.48-.08,1.59,1.02,1.94.64,1.72-1.84-7.44-6.79,1.3-7.16l-1.32-3.26c-1.69-.74-1.37,5.45-3.9,2.59-.91-1.03.14-3.68,1.06-5.16.12-.2,1.5-.09,1.46-.63-.47-6.05-4.99-4.26-5.21-5.36-.64-3.13.6-7.93.03-11.6-.76-4.89-4.38-10.04-2.53-16.36,2.93,1.45,4.69,4.5,7.14,6.54s6.73.9,5.89,6.49c8.04-5.63-3.75-6.13-5.74-10.4-2.29-4.94,1.04-14.52.6-17.48-.14-.93-2.72-.64-2.71-1.55.03-1.28,1.58-2.54.74-4.43-.93-2.07-6.68-5.74-7.94-9.24-.95-2.63.8-4.88.64-5.07-.34-.42-2.13.21-2.56-.05-.35-.22-3.42-6.44-3.62-7.46C-3.66.53,24.42-2.33,37.92,1.42v.03ZM27.5,10.55c.26-.25-1.02-4.84-1.32-5.2-1.79-2.15-2.23,8.57,1.32,5.2ZM34.45,8.86c-.85-1.58.48-3.86-1.72-3.49-.46,3.85-.12,7.55,3.89,9.13,1.62-4.62-1.67-4.69-2.16-5.62h0ZM57.49,10.55c.66-.53-2.57-3.65-3.91-2.58-.66.53,2.57,3.65,3.91,2.58ZM62.32,13.55c-.13-.13-4.35-2.5-2.89-.39l5.15,5.29,5.93,10.34c-1.26-4.69-4.82-11.89-8.2-15.25h.01ZM40.54,15.78c-1.63.27-5.41-1.16-5.2,1.29,2.14-.93,7.51,2.91,7.81,2.62,2.36-2.4-2.36-2.28-2.59-3.91,13.66-2.32,1.41-3.72,0-2.61-.1.08-.08,1.99,0,2.61h-.01ZM37.92,19.71c-2.87-2.01-6.48.42-6.51,3.9l6.51-3.9ZM14.44,19.71c-.89-.73-3.47-.21-2.57,1.93,1.4,3.34,10.3,8.49,14.33,8.47-1.54-5.68-6.44-3.77-7.57-4.24-.74-.31-3.9-5.93-4.19-6.17ZM24.89,19.71c-.16-.13-3.86-.53-3.91.64,1.67,3.59,4.5-.16,3.91-.64ZM118.76,19.71c-2.72-.37-2.96-.13-2.59,2.59l2.59-2.59ZM60.09,21.01c-3.1-.34-5.91.1-8.89.93-2.31.64-3.39-.43-2.83,2.97l11.72-3.9ZM36.61,28.81c.74-1.55-.8-2.96-1.96-3.89-.56,1.3,1.34,5.15,1.96,3.89ZM41.83,34.03c.6-.69-1.69-8.89-3.89-9.13-.51,2.02,1.36,4.24,1.38,5.78.03,1.46-3.27-.22-2.69,2.02,1.58-.6,5.02,1.53,5.2,1.32h-.01ZM32.72,26.21c-3.68-3.62-3.68,10.13,0,6.51.23-.22.23-6.28,0-6.51ZM82.26,28.82c-.33-.33-9.1-.86-9.11,1.29,1.62-.74,13,2.59,9.11-1.29ZM61.4,34.03c1.79-.25,6.51,1.23,6.51-1.29-2.27.69-7.63-3.95-9.11-2.62-1.94,1.75,1.79,2.67,2.61,3.91-1.34.2-4.71,1.29-3.9,2.58.05.09,1.17-.23,2.05.57.81.74,2.45,4.08,4.46,2.06-1.1.76-2.18,3.7-4.82,3.65-7.39-.14-14.37,2.27-21.8,1.45-1.25-.13-4.89-.57-4.65-2.48,1.77-.44,7.01,2.07,7.81,1.29.65-.64-.04-5.8-1.96-6.51-1.13-.42-.09,2.31-1.46,2.65-2.89.73-11.17-1.42-10.94-5.25-2.28-.68-.63,3.16-1.94,2.59-.57-.25-1.13-1.59-2.61-1.94-2.82-.66-6.66-.63-9.79-1.96.78,4.32,8.6,6.22,9.79,7.86.9,1.24.37,3.42.66,3.87s7.95-2.14,10.4,0c.09,1.93-5.79,2.18-6.98,2.13-1.04-.04-2.92-.42-3.79-.87-.95-.5-1.37-4.8-3.55-2.57-1.41,1.43,1.46,16.28,1.3,19.54,2.11.5.53-1.97,2.32-2.57.99-.34,2.4.17,2.89-.04.64-.27-1.81-4.54-1.32-5.19.21-.27,4.51-.82,5.21-1.33,1.71-1.24-4.62-.85-2.57-3.87.12-.18,2.91-.42,3.35-2.69l9.02,2.67-1.96-2.61c14.52,1.24,23.62,1.68,33.26-10.42,1.36-1.69,1.98-3.35-.65-1.94-.59,2.56-3.31,3.21-5.24,4.52,2.35-2.37-1.89-2.54-2.28-2.91-.76-.72-.14-2.02-.33-2.31h-.01ZM114.84,39.25l1.3-9.11c-1.77-.08-2.66,4.21-2.99,5.55-.51,2.13-1.13,2.66,1.67,3.56h.01ZM86.6,36.17c-.82-.83-1.28-4.03-3.01-2.8.33,2.29,11.38,13.29,9.1,14.99-1.23.93-8.9,1.13-11.07,1.34-2.54.25-3.82-1.2-3.26,2.57l35.19-6.53c.22-2.4-4.29-1.3-5.7-1.13-3.06.38-11.29,3.48-11.9,3.45-2.52-.13-4.28-6.75-5.55-8.49-1.43-1.97-2.56-2.18-3.78-3.4h-.01ZM49.66,39.24l-2.59-2.59c-.37,2.72-.13,2.96,2.59,2.59ZM118.76,45.78l-26.39,6.58c-3.26,2.84-5.16,4.5-8.12,7.77-.8.89-2.84,1-3.17,1.47-.53.76,1.86,16.08-2.09,18.04-2.49,1.24-1.83-1.23-1.43-2.74.47-1.8,3.14-9.3,2.1-10.29-.53-.51-11.77.83-13.39,1.37-1.15.38-.89,2.29-1.83,2.52-2.1.5-4.72-.22-6.94.03.22,1.86,5.71,2.22,7.33,2.44,1.53.21,5.5-.04,5.71.16.78.72-1.19,5.06-1.32,6.51-2.18.57-.55-2.33-2.1-2.67-2.99-.65-6.4,1.59-9.92,1.15-3.87-.48-9.19-4.26-12.37-4.73-2.72-.4-5.25,2.36-7.54-1.55-.42,8.11-4.84.48-9.77,1.94,4.17,2.45,15.93,8.24,20.3,8.41,6.45.25,16.49-1.17,23.31-1.3,7.18-.13,14.39.23,21.56.05-.74-4.05-4.99-1.1-5.21-1.28-.56-.47-2.83-13.35-2.06-14.42,2.35-3.19,8.24-.94,8.57-1.25.57-.56-1.88-3.61-.76-5.21,2.05-2.92,8.62-3.08,11.16-4.65.94-.59,5.96-8.94,7.29-1.85.29,1.55-1.4,8.55,1.88,5.2.34-.35-.43-5.07.2-6.98.76-2.28,4.5-2.28,5.02-4.75l-.03.04ZM56.84,54.89c8.57.77,18.06-.56,26.73,0,.29-2.29-2.95-1.24-4.55-1.3-10.74-.46-20.63.42-31.28-2.65-3.79-.35-1.21,2.1.25,2.37,2.29.43,6.98,1.41,8.85,1.58h0ZM118.76,50.98c-1.42-1.42-4.02,1.17-2.59,2.59s4.02-1.17,2.59-2.59ZM36.63,54.88c-2.72-3.35-5.57,4.97-5.21,5.21.22.16,5.05,1.53,5.21,1.32.21-.25.21-6.27,0-6.52h0ZM109.62,95.3l1.3-9.11c-1.97.09-3.99,9.05-1.3,9.11ZM122.66,101.83l-1.75-5.41-7.35-10.22,3.04,8.07,6.08,7.56h-.01ZM79.64,118.77l.89-12.19-3.47-9.97c-1.38,6.26-.83,12.27.33,18.58.22,1.21.52,3.91,2.26,3.59h0ZM107.03,97.92c-2.5-2.79-9.33,12.57-10.42,13.69l-11.73,11.07c1.99.13,3.87-.29,5.62-1.29,5.55-3.19,8.38-9.74,12.06-13.05,1.3-1.17,3.32-.17,3.87-1.16.78-1.42.99-8.83.6-9.26ZM77.04,124.01c-2.19-.55-4.38.89-6.23.98-.78.04-9.6-1.89-5.49,1.62.47.4,11.47.55,11.72-2.59ZM79.65,151.37v-20.21c0-.76,2.46-4.46,1.29-5.87-2.06-2.48-3.89,11.85-3.95,13.62-.12,3.4-.82,10.72,2.66,12.45ZM91.76,135.34c-2.26-2.06-4.37-7.43-8.19-8.74-.85,3.96,14.55,18.21,15.62,16.95,3.19-3.77-6.24-7.13-7.43-8.21ZM109.62,139.62c-.07-2.8.14-5.67,0-8.49-.08-1.59.99-4.85-1.29-4.55.07,2.8-.14,5.67,0,8.49.08,1.59-.99,4.85,1.29,4.55ZM130.48,137.02c.91-2.01-.64-5.32-1.28-3.9-.91,2.01.64,5.32,1.28,3.9ZM125.28,140.95c-1.42-1.26-11.42,5.85-12.44,8.41-1.36,3.39.73,9.23.48,9.65-.09.16-1.68.14-2.35,1.12-5.32,7.73,4.28,1.11,6.48,2.99,2.5,2.14-5.15,4.19-3.9,5.2.31.25,7.51-1.06,7.82-1.3,1.55-1.16-4.25-6.05-1.97-7.81,2.45,3.35,7.12,7,2.48,10.3-1.49,1.06-4.58.61-4.42,2.72,4.11,1.88,13.18-8.37,10.43-10.4-1.23-.91-6.88.5-7.82-4.58-.14-.78,3-.66,4.51-1.97,2.78-2.37,6.84-11.6,4.6-14.32-.64-.77-4.8,5.48-6.51,3.9-.66-.63,3.29-3.29,2.61-3.89v-.03ZM115.5,142.25v1.3c.85-.43.85-.87,0-1.3ZM109.64,148.78c-2.01-.91-5.32.64-3.9,1.28,2.01.91,5.32-.64,3.9-1.28ZM106.87,159.02c.34-.23,2.79-6.34,2.76-7.65l-6.49,5.88c-.89,2.78,2.86,2.39,3.74,1.77h-.01ZM93.99,152.69c-2.89-.09-5.74.66-8.54,1.28-2.26.5-3.81-1.3-3.19,2.61,1.97.44,2.7.95,4.8.35,1.25-.37,6.48-2.67,6.94-4.24ZM107.03,168.32c.21-.25.46-5.84-.64-6.52-6.91,1.97-1.98,9.66.64,6.52ZM75.73,173.54c-4.35-2.26-8.49-2.53-12.39-6.49-.64,1.85,3.09,4,4.37,4.75,2.03,1.17,5.05,1.51,5.42,1.76.44.29-3.73,8.72-6.52,7.82-.38,1.9,4.85,1.94,5.87,1.89,5.4-.33,8.5-1.36,7.2-7.61-.16-.74-5.18-1.28-2.63-3.42,1.94-1.63,9.9,2.89,10.33,2.57.35-.26,4.39-7.43,4-7.78-.66-.61-16.17.66-16.94,1.3-.3.25,2.02,3.65,1.29,5.2h0ZM63.99,177.45c1.07-1.34-2.06-4.58-2.58-3.91-1.07,1.34,2.06,4.58,2.58,3.91ZM65.31,181.37l-16.92-3.29c2.16,2.27,5.76,3.65,8.76,4.26,1.54.31,7.9,1.55,8.16-.99h0Z"/>
        <path class="cls-1" d="M44.45,157.89c1.3-1.32,2.15-3.4,3.9-3.91-2.31,7.97,5.89,8.1,6.53,9.13,1.08,1.76.18,2.67-1.98,2.66-1.43,0-10.64-.98-11.04-1.36-.95-.89,2.39-4.29,2.61-6.52h-.01Z"/>
        <path class="cls-1" d="M7.94,152.68c.13-1.12,2.49-3.99,1.3-6.52l3.9,3.91c1.59-5.92-2.67-10.26-3.7-15.2-.53-2.53.34-1.73,2.4-1.73.31,2.37,1.99,9,3.25,10.46,1.86,2.16,5.32.87,5.89,1.29.83.6-1.83,4.9-1.96,6.31-.17,1.97.78,3.94.68,5.98s-1.93,6.11-1.34,7.24c.3.56,7.68-3.64,5.2,7.82-3.06-2.22-5.23-2.67-7.84-3.92-.18-.09,1.26-2.16.77-3.91-.23-.86-4.86-8.87-5.33-9.11-.72-.38-.43,3.86-3.26,2.61-.13-1.51-.18-3.74,0-5.21h.04Z"/>
        <path class="cls-2" d="M4.03,27.52c.43.26,2.22-.37,2.56.05.16.2-1.59,2.44-.64,5.07,1.26,3.51,7.01,7.16,7.94,9.24.85,1.88-.72,3.16-.74,4.43-.01.91,2.57.63,2.71,1.55.44,2.97-2.91,12.54-.6,17.48,1.99,4.28,13.78,4.77,5.74,10.4.82-5.59-3.43-4.45-5.89-6.49s-4.21-5.1-7.14-6.54c-1.85,6.32,1.77,11.47,2.53,16.36.57,3.68-.66,8.47-.03,11.6.22,1.11,4.75-.69,5.21,5.36.04.52-1.34.42-1.46.63-.91,1.49-1.97,4.12-1.06,5.16,2.53,2.86,2.19-3.34,3.9-2.59l1.32,3.26c-8.76.38.42,5.32-1.3,7.16-.35.38-1.46-.72-1.94-.64-6.08,1.02,2.09,6.22,4.52,4.52.52-.37,1.46-6.36,1.36-7.8l1.94,5.2c1.33-2.57,5.42-4.02,6.78-5.61.91-1.07.55-4.09,2.36-4.81,1.28-.51,0,3.08,1.29,2.59,1.85-.69,4.34-6.17,7.16-5.88-4.9,5.87-10.63,13.05-18.23,15.02-.21,2.15,2.79,1.47,4.28,2.61,1.34,1.02,3.21,4.51,4.55,5.1,1.63.72,6.83,1.08,6.82,2.06-.01,1.29-4.51.72-5.61.39-3.14-.94-5.46-4.19-8.72-4.32l5.18,17.61-3.89-5.2c.16,2.29,0,4.52-.38,6.81-.22,1.36-.37,5.19-2.24,4.93v-27.38c-3.77-.6-2.16.81-2.76,3.05s-1.59,5.2-1.96,7.38c-.39,2.29.8,4.86.65,5.07-.38.53-3.26.57-3.44,2.01-.1.81,1.88,8.8,2.61,9.58.82.86,3.39,1.19,4.84,2.31,7.74,6.02,10.94,11.09,22.23,7.12l-2.18-1.51-2.39-10.2c3.87,2.4,4.46,8.47,7.11,11.15,4.64,4.67,25.54,1.88,32.66,4.51.3,2.31-2.97,1.32-4.39,1.15-3.94-.47-7.91-1.4-11.93-.95-1.83.2-2.83,1.73-4.13,2.01-1.76.38-4.73-3.19-1.73,2.37-.93,1.17-3.14-1.33-3.87-.66-.16.14,1.07,3.32,1.3,3.9-.64-1.03-8.84-1.16-6.53-9.13-1.75.51-2.59,2.59-3.9,3.91.5-4.93-6.31-1.84-11.03-2.65-1.96-.34-6.09-4.2-8.36-1.08-.39.53-.42,7.35-.16,7.64,2.49,2.69,2.63-5.18,5.2-2.59.7.7-2.33,3.44-.64,3.91l8.46-.66c-2.11,3.81-7.26,3.7-9.88,5.81-1.99,1.6-.8,4.89-4.46,3.98,2.48-11.46-4.9-7.26-5.2-7.82-.6-1.12,1.24-5.23,1.34-7.24s-.86-4.03-.68-5.98c.13-1.42,2.78-5.71,1.96-6.31-.59-.42-4.03.87-5.89-1.29-1.25-1.45-2.93-8.08-3.25-10.46-2.06,0-2.93-.8-2.4,1.73,1.03,4.94,5.29,9.28,3.7,15.2l-3.9-3.91c1.19,2.54-1.17,5.4-1.3,6.52L4.09,27.57l-.05-.05ZM9.24,96.6l-2.58-19.54c.1,4.5-.29,9.03.13,13.53.12,1.28.57,6.14,2.45,6.01h0ZM11.86,104.44c-2.01-1.97-4.32,1.85-.64,3.9,1.15-.05.78-3.77.64-3.9ZM12.13,119.89c-.66-.82,2.74-4.02-.25-3.7-2.22,4.41-3.34,7.93-2.62,13.02,2.57.98,4.43-3.38,4.89-4.88,1.6-5.27-1.45-3.73-2.02-4.43h0Z"/>
        <path class="cls-2" d="M44.45,157.89c-.22,2.23-3.56,5.63-2.61,6.52.4.38,9.61,1.34,11.04,1.36,2.18.01,3.08-.9,1.98-2.66.73,1.76,6.15,10.85,5.21,11.73-.2.18-5.05.22-5.2.01-.42-.57.27-3.91-.01-5.21-2.24-.6-.56,2.69-2.05,2.63-1-.04-2.31-1.19-3.62-.99-1.51.22-2.78,1.76-4.26,1.86-1.38.09-10.51-.38-10.9-.91-1.66-2.23,3.35-4.38,3.9-5.2-2.06,2.46,2.92,3.59,3.91,2.61.14-.14.12-3.75,0-3.91-.13-.16-3.77,1.15-3.9,1.3,2.75-4.11,2.53-5.11,6.52-9.13h-.01Z"/>
        <path class="cls-2" d="M7.94,157.89c2.83,1.25,2.53-2.99,3.26-2.61.47.25,5.08,8.25,5.33,9.11.48,1.73-.95,3.82-.77,3.91,2.61,1.25,4.77,1.71,7.84,3.92,7.97,5.76,11.98,8.64,22.33,10.91,7.91,1.73,35.44,4.05,41.54.17,4.35-2.76-1.4-3.59-1.32-3.89.29-1.13,3.4-5.36,4.76-5.72,5.48-1.47,2.87,3.48,3.08,3.73.35.42,9.82-1.25,10.81-1.58,3.92-1.28,3.23-6.41,4.17-6.22,1.72.35,4.72,2.87,7.18,2.61-.63,2.62-4.05.38-6.6,3.21-1.9,2.11-.12,3.27,1.38,4.6-4.69,1.75-7.48,3.39-13.04,3.91,1.98-2.75,1.75-3.13-1.96-2.62-1.43.2-.26,1.96-.65,2.62-1.64,2.7-28.7,4.34-33.3,3.96-7.59-.61-21.72-3.74-29.01-6.21-11.09-3.75-23.92-11.12-25.06-23.83h.01Z"/>
        <path class="cls-2" d="M477.34,33.32c-1.17,2.16-3.06,1.47-3.79,4.71-.56,2.53-1.04,9.73-1.21,12.79-.47,8.44-.41,20.56,1.23,28.77,2.66,13.29,24.67,13.4,26.69-1.85.93-7.03,1.08-31.05.03-37.86-.2-1.3-.66-2.5-1.45-3.55-1.24-1.65-3.31-1.37-3.5-3h15c-.18,1.7-2.25,1.21-3.47,3.03-3.52,5.26-.63,31.11-1.53,39.47-2,18.69-31.04,19.38-36.52,4.51-3.71-10.07.94-39.36-2.56-44.44-1-1.45-3-1-2.92-2.58h14Z"/>
        <path class="cls-2" d="M538.08,32.56c27.2-4.67,38.23,32.12,22.25,50.24-15.07,17.08-39.75,4.79-41.99-15.97-1.45-13.42,4.81-31.71,19.75-34.27h-.01ZM532.64,86.01c1.56,1.34,7.09,3.23,9.23,3.35,24.4,1.42,27.9-47.32,6.71-54.78-14.56-5.13-23.99,9.35-25.24,22.24-.9,9.28,1.95,22.9,9.29,29.19h0Z"/>
        <path class="cls-2" d="M313.34,111.33c-13.03,9.21-15.58,27.29-10.19,41.68,7.05,18.82,28.96,17.42,34.91-1.46,4.46-14.14,1.98-31.26-10.73-40.22,16.36,4.31,21.51,26.23,15.19,40.68-11.3,25.86-43.43,17.81-46.94-9.45-1.51-11.71,5.26-28.53,17.75-31.23h0Z"/>
        <path class="cls-2" d="M123.98,39.25c-1.4,1.89-7.17,6.88-9.13,5.21-2.52-2.16,2.49-2.65,2.63-3.43.43-2.26-.43-5.08.05-7.56.33-1.69,2.22-10.69,2.53-11.17.1-.17,3.79-.16,3.9,0,.33.47-.3,4,.18,5.7.82,2.89,3.56.65,3.73.81.56.52-.89,5.23.66,5.24,2.4.01-.61-16.9-3.26-18.25l9.13,6.51c.25.44,2.44.63,2.7,3.34.18,1.97-1.36,2.87-1.4,3.18l-5.21,7.81,5.21-5.2c2.67,18.67-.94,38.88-1.36,57.96-.47,21.45,2.16,47.18.07,67.86-.56,5.55-1.9,5.21-3.91,8.47l-1.29-14.34,3.92,1.93c-3.27-10.56,1.28-21.2-1.33-31.94-.22-.16-2.36,1.47-2.59,1.32-.72-.47,1.51-6.62-1.3-6.52-.7,2.82-2.14,6.27-3.62,8.74-.82,1.37-.86,3.62-2.91,1.04,3.89-2.65,3.1-8.71,4.51-11.21.74-1.32,3.14.21,3.22.08.3-.53.04-2.7.5-4.12,1.89-5.95.56-2.13-.3-7.01-.26-1.49-1.73-9.3-1.41-9.67,1.72-2.01,2.93,1.23,3.26,2.54.6,2.44-.21,7.34,1.94,7.87-.37-2.11.55-12.69,0-13.05-.3-.21-2.41,2.28-2.61.65,3.02-4.54,3.01-8.3,2.61-13.68l-1.3,5.2c-2.09.42-1.56-3.47-1.4-4.64.37-2.52,2.45-1.67,2.69-2.75,1.83-8.46-2.23-4.08-2.58-4.33-2.59-1.81,4.73-5.45,2.58-7.84-.9-1-13.98,12.97-16.94,10.43-2.39-2.07,1.83-2.79,2.57-3.23,7.89-4.64,8.83-4.13,7.86-15.01l2.61,7.81c6.66-3.12,3.08-12.16,3.89-18.24-2.74-.3-.61,4.42-1.3,5.21-.17.2-5.03-.63-5.27-.74-2.02-1.04-2.06-5.07-5.14-4.5l9.11-7.8c-2.35.07-4.04,1.12-6.52,1.29,1.88-2.56,3.14-4.38,2.59-7.82-2.06,1.5-8.63,8.24-2.59,7.82v.03Z"/>
        <path class="cls-2" d="M308.34,33.32c.32.32-.22,5.66,0,7l-4.8-3.67c-1.46-.53-8.66-2.32-9.69-2.32h-14.5c-.98,0-.09,17.77-.06,19.55.1,6.37-.75,3.6-1.03,5.87-.36,2.95-.24,26.49.52,27.64,1.83,2.75,23.89.3,27.13-2.99,1.61-1.63.66-3.92,2.42-4.07v9h-38.99c.04-1.76,2.61-1.23,3.52-2.98.6-1.15.43-2.26.53-3.47.86-10.93,1.08-32.35-.03-43.07-.14-1.36-.3-2.75-1.1-3.91-1.01-1.45-3-1-2.92-2.58,4.85,1.05,37.62-1.38,39,0h0Z"/>
        <path class="cls-2" d="M209.34,33.32c.25.25.23,6.73,0,7-1.43,1.62-3.64-4.46-5.71-3.79l-11.29-2.21v51.5c0,1.4,4.46,2.15,4,3.5h-14c-.27-1.63,2.62-1.13,3.52-2.98.15-.3,1.48-6.19,1.48-6.52v-45.5c-6.05.52-13.22.75-16.99,6v-7c4.84,1.05,37.61-1.38,38.99,0Z"/>
        <path class="cls-2" d="M397.34,33.32c-.93,2.25-3.44,1.18-3.99,4.51-1.63,9.89-1.61,25.88-1.06,36.03.15,2.66.64,9.68,1.22,11.78.69,2.47,3.55,1.75,3.82,3.68h-14c-.08-1.58,1.92-1.12,2.92-2.58.8-1.16.96-2.55,1.1-3.91,1.4-13.54-1.12-29.28.03-43.07.07-1.18-.35-2.06-.98-3.02-1.16-1.76-3.74-1.66-4.07-3.43h15.01Z"/>
        <path class="cls-2" d="M229.34,33.32c-7.04,5.43-3.26,16.86-3.36,24.67-.07,5.74-2.23,24.9.44,28.75,1,1.45,3,1,2.92,2.58h-14c.13-1.75,2.37-1.15,3.47-3.03s1.41-6.08,1.57-8.43c.61-9.43.95-26.83-.15-35.93-.17-1.41-.78-4.5-1.42-5.58-1.11-1.88-3.34-1.28-3.47-3.03h14Z"/>
        <path class="cls-2" d="M262.34,33.32c-.03,1.76-2.63,1.21-3.52,2.98-.62,1.23-1.39,7.59-1.52,9.48-.59,8.28-.98,32.78,1.27,39.82.38,1.2,3.2,3.37,2.78,3.71-.7.57-10.42-.4-12.5,0-1.21-1.33,1.83-1.29,2.78-3.23.51-1.04.62-2.12.74-3.26,1.1-10.65.82-31.17.02-42.06-.33-4.52-.88-4.61-4.04-7.46h14,0Z"/>
        <path class="cls-2" d="M262.34,110.32c1.68,1.71-4,3.14-4,5.5v50.5h-10c.07-1.76,2.51-1.17,3.49-3,2.34-4.37,1.93-32.9,1.55-39.54-.32-5.45-.35-10.31-5.05-13.45,2.11.37,13.51-.5,14,0h.01Z"/>
        <path class="cls-2" d="M589.34,33.32c.2,1.9-2.59.57-3.58,1.92-1.35,1.84-.88,40.58-.41,45.57.13,1.4.64,4.77,1.17,5.83.94,1.87,2.89,1.01,2.82,2.67h-12.49c-1.21-1.32,1.83-1.28,2.78-3.21.51-1.04.62-2.12.74-3.26.98-9.45,1.09-32.72,0-42.04-.2-1.71-.46-3.06-1.53-4.47-1.24-1.65-3.31-1.37-3.5-3h14,0Z"/>
        <path class="cls-2" d="M351.34,33.32c1.1.49-2.29,1.63-2.93,2.57-.29.44-2.07,5.62-2.07,5.93v47.5h-9c.04-1.75,2.61-1.23,3.52-2.98.6-1.15.43-2.26.53-3.47.86-10.93,1.08-32.35-.03-43.07-.14-1.36-.3-2.75-1.1-3.91-1.01-1.45-3-1-2.92-2.58,3.07.69,11.9-.94,14,0h0Z"/>
        <path class="cls-2" d="M461.34,110.31v56.01h-9c-.06-1.61,1.83-.95,2.84-2.65.68-1.14,1.01-3.44,1.16-4.85,1.02-9.71.92-30.22.05-40.05-.2-2.27-.54-4.24-1.74-6.22-.95-1.57-2.46-.69-2.31-2.22h9v-.02Z"/>
        <path class="cls-2" d="M507.34,111.32v49.5c0,.24,1.23,3.01,1.56,3.45.83,1.09,2.71.53,2.43,2.04-2-.37-11.34.54-12,0-.3-.24,2.21-2.86,2.56-3.94,1.34-4.19,1.11-38.6.47-44.58-.67-6.28-6.25-6.93,4.97-6.47h.01Z"/>
        <path class="cls-2" d="M372.34,111.33c-13,9.25-15.68,27.31-10.19,41.68,5.79,15.14,23.07,18.85,32.69,5.32.81,1.36.99,6.39-.08,7.11-3.4,2.26-18.35,2.52-22.45,1.42-10.83-2.9-18.05-17.41-18.05-28.03s6.81-25.71,18.09-27.49h0Z"/>
        <path class="cls-2" d="M414.34,111.33c.34.28-1.43,1.83-1.73,2.76-2.01,6.19-2.25,42.71-.02,48.48.44,1.15,3.09,3.46,2.75,3.74-.47.38-11.53.38-12,0-.32-.26,2.31-2.75,2.78-3.72,2.2-4.58,1.89-43.21-.05-48.5-.32-.87-2.04-2.51-1.72-2.77.39-.32,9.61-.32,10,0h0Z"/>
        <path class="cls-2" d="M426.34,33.33l-7.03,4.46c-11.71,10.02-12.15,38.64,1.03,48.04-2.84,1.56-6.72-2.27-8.52-4.48-12.14-14.87-6.85-45.41,14.52-48.01h0Z"/>
        <path class="cls-2" d="M435.04,83.02c-.31.37-2.97,2.23-3.68,1.81,14.04-17.29-20.69-30.2-7.51-46.5,1.38,1.38-.36,3.89-.35,5.52.05,8.97,16.75,18.37,14.63,31.73-.25,1.57-2.11,6.29-3.09,7.45h0Z"/>
        <path class="cls-2" d="M596.35,62.31l7.29-1.2c9.34-3.6,11.58-16.59,4.37-23.45-4.4-4.18-11.18-2.94-11.66-3.35-3.18-2.72,6.51-1.91,7.26-1.76,22.97,4.44,14.46,35.95-7.26,29.75h0Z"/>
        <path class="cls-2" d="M620.33,88.33c.26,1.66-1.35.92-2.47.99-2.57.16-5.9.5-8.09-.93-3.26-2.14-10.19-15.73-14.03-19.97-1.58-1.75-4.51-2.57-5.4-5.09,16.13,1.21,16.89,21.13,29.99,25h0Z"/>
        <path class="cls-2" d="M381.34,147.31c-1.62,1.77-4.06-3.62-4.06-5.5.02-10.02,17.98-12.74,15.4-23.28l-2.85-6.2c7.63,3.79,8.32,10.75,3.52,17.49-2.7,3.79-12.38,9.02-12.75,13.12-.11,1.16,1.23,3.84.74,4.37Z"/>
        <path class="cls-2" d="M445.33,165.33c.05,1.7-4.51,1.14-5.55,1.05-1.66-.15-2.44.04-4.01-.99-3.7-2.42-9.21-15.21-13.44-19.56-2.43-2.49-5.1-2.95-6.99-5.5,16.28.47,17.22,20.26,29.99,25Z"/>
        <path class="cls-2" d="M541.33,165.33c.05,1.7-4.51,1.14-5.55,1.05-1.66-.15-2.44.04-4.01-.99-3.69-2.42-9.21-15.21-13.44-19.55-2.86-2.94-6.04-3.22-7.97-7.02l12.48,6.51c7.1,5.41,9.43,17.57,18.49,20.01h0Z"/>
        <path class="cls-2" d="M524.34,139.31c.43-1.73,3.17-1.22,4.98-2.5,8.07-5.75,6.13-20.98-3.29-24.69l-8.69-2.79c7.04-.34,16.66,1.8,19.88,8.6,4.89,10.34-1.07,21.69-12.88,21.38Z"/>
        <path class="cls-2" d="M440.2,111.45c.89.6,1.23,4.87,1.1,6.25-.5,5.23-5.03,10.08-9.26,12.81-1.79,1.16-13.9,6.49-14.69,5.8-1.79-1.58,1.27-2.13,2-2.45,6.83-2.98,16.38-7.55,16.97-16.17.12-1.71-1.39-5.97-.97-6.38.17-.17,4.36-.2,4.86.13h0Z"/>
        <path class="cls-2" d="M463.07,99.02c.73-.67.8-2.65,2.26-2.7.46,8.77-11.89,10.79-18.03,6.54l-13.96-8.53c6.89.66,23.87,10.05,29.72,4.7h0Z"/>
        <path class="cls-2" d="M227.34,57.31c.37-1.74,1.99-2,3.5-2.07,5.47-.26,10.91,4.16,16.98,3.06,1.6-.29,2.34-1.96,3.51-1.49-6.15,11.77-15.25,1.2-23.98.5h0Z"/>
        <path class="cls-2" d="M302.34,58.32c1.01.87-1.17,2.74-2.25,3.23-6.93,3.15-12.45-3.18-18.74-4.73,4.24-4.22,9.36.78,13.55,1.44,1.66.26,7.1-.23,7.44.06Z"/>
        <path class="cls-2" d="M463.34,134.31c-.21-1.43,3.77-1.85,4.5-1.81,4.35.21,8.26,3.37,12.11,3.78,2.12.23,3.49-.42,5.37-.47-7.23,8.75-13.88-1.4-21.98-1.5h0Z"/>
        <path class="cls-2" d="M489.84,110.32c1.73.53,2.01,6.35,1.49,7-.26.33-5.33-4.78-7.17-4.32l-13.82-2.68c4.97.95,15.32-1.29,19.5,0h0Z"/>
        <path class="cls-2" d="M273.34,166.32l10.35-4.15c2.15-1.17,4.26-7.65,4.65-1.37.06,1.03.28,5.51,0,5.51h-15Z"/>
        <path class="cls-2" d="M376.34,89.32h-15c2.43-3.35,7.76-1.56,11.38-4.12,1.61-1.14,1.81-3.26,3.61-3.88v8h0Z"/>
        <path class="cls-2" d="M491.34,166.32h-14l10.36-4.14c5.73-7.56,3.09-1.95,3.64,4.14Z"/>
        <path class="cls-1" d="M135.71,31.43l-5.21,5.2,5.21-7.81c-.1.72-.1,1.89,0,2.61Z"/>
        <path class="cls-2" d="M427.34,33.31c-.27-1.69,2.43-1.1,3.49-.99,32.47,3.46,31.18,52.07,1,59.98l13.35-12.64c10.14-15.15,4.79-47.63-17.83-46.34h-.01Z"/>
        <path class="cls-1" d="M95.3,183.97c.4-.66-.77-2.41.65-2.62,3.69-.52,3.92-.13,1.96,2.62-.86.08-1.75-.05-2.61,0Z"/>
        <path class="cls-2" d="M116.16,177.45c-.53,2.49-2.41,1.99-3.91,2.61.56-2.49,2.29-2.03,3.91-2.61Z"/>
        <path class="cls-2" d="M429.34,95.31c-.07.07-2.12.38-1.99-.49,1.56-2.72,3.13-.68,1.99.49Z"/>
        <path class="cls-2" d="M40.54,2.74c-1.1-.08-2.32,0-2.61-1.3,1,.27,2.16-.04,2.61,1.3Z"/>
        <path class="cls-2" d="M302.84,56.32c.65.33.65.67,0,1v-1Z"/>
        <path class="cls-2" d="M118.76,45.78c-.52,2.45-4.26,2.46-5.02,4.75-.63,1.9.14,6.62-.2,6.98-3.26,3.35-1.59-3.65-1.88-5.2-1.33-7.11-6.34,1.26-7.29,1.85-2.54,1.56-9.1,1.73-11.16,4.65-1.12,1.6,1.33,4.65.76,5.21-.33.31-6.22-1.94-8.57,1.25-.78,1.06,1.49,13.95,2.06,14.42.22.18,4.47-2.78,5.21,1.28-7.17.18-14.39-.18-21.56-.05s-16.86,1.55-23.31,1.3c-4.37-.17-16.13-5.96-20.3-8.41,4.93-1.46,9.35,6.17,9.77-1.94,2.28,3.92,4.8,1.16,7.54,1.55,3.18.47,8.5,4.25,12.37,4.73,3.53.44,6.94-1.8,9.92-1.15,1.55.34-.08,3.25,2.1,2.67.13-1.43,2.1-5.78,1.32-6.51-.21-.2-4.19.05-5.71-.16-1.62-.22-7.11-.57-7.33-2.44,2.22-.25,4.85.47,6.94-.03.94-.22.68-2.14,1.83-2.52,1.62-.53,12.85-1.88,13.39-1.37,1.04.99-1.63,8.49-2.1,10.29-.39,1.5-1.06,3.98,1.43,2.74,3.96-1.97,1.55-17.29,2.09-18.04.34-.47,2.37-.59,3.17-1.47,2.96-3.29,4.86-4.94,8.12-7.77l26.39-6.58.03-.04Z"/>
        <path class="cls-2" d="M61.4,34.03c-.81-1.24-4.55-2.16-2.61-3.91,1.49-1.34,6.84,3.3,9.11,2.62,0,2.52-4.72,1.04-6.51,1.29.2.29-.43,1.59.33,2.31.39.37,4.63.53,2.28,2.91,1.93-1.32,4.65-1.97,5.24-4.52,2.63-1.42,2.01.25.65,1.94-9.63,12.1-18.73,11.66-33.26,10.42l1.96,2.61-9.02-2.67c-.43,2.27-3.22,2.5-3.35,2.69-2.03,3.02,4.29,2.63,2.57,3.87-.69.51-5.01,1.06-5.21,1.33-.5.66,1.94,4.92,1.32,5.19-.48.21-1.89-.3-2.89.04-1.79.6-.21,3.06-2.32,2.57.14-3.27-2.72-18.11-1.3-19.54,2.18-2.23,2.59,2.07,3.55,2.57.89.46,2.76.83,3.79.87,1.2.04,7.08-.2,6.98-2.13-2.45-2.14-10.13.44-10.4,0s.25-2.63-.66-3.87c-1.19-1.64-9.01-3.53-9.79-7.86,3.13,1.33,6.96,1.29,9.79,1.96,1.47.34,2.03,1.69,2.61,1.94,1.3.56-.34-3.27,1.94-2.59-.23,3.83,8.04,5.98,10.94,5.25,1.37-.34.33-3.06,1.46-2.65,1.9.7,2.61,5.87,1.96,6.51-.8.78-6.04-1.72-7.81-1.29-.23,1.9,3.4,2.35,4.65,2.48,7.43.81,14.41-1.6,21.8-1.45,2.65.07,3.73-2.89,4.82-3.65-2.01,2.02-3.65-1.32-4.46-2.06-.87-.81-1.99-.48-2.05-.57-.81-1.3,2.56-2.4,3.9-2.58h.01ZM23.59,48.39c-2.45-2.07-5.81,1.99-3.91,3.9,2.01,1.98,4.16-3.68,3.91-3.9Z"/>
        <path class="cls-2" d="M125.28,140.95c.68.61-3.27,3.27-2.61,3.89,1.71,1.58,5.87-4.67,6.51-3.9,2.26,2.72-1.83,11.94-4.6,14.32-1.51,1.3-4.65,1.19-4.51,1.97.94,5.07,6.6,3.66,7.82,4.58,2.75,2.05-6.32,12.28-10.43,10.4-.17-2.11,2.93-1.67,4.42-2.72,4.64-3.3-.01-6.94-2.48-10.3-2.28,1.76,3.52,6.66,1.97,7.81-.31.23-7.52,1.55-7.82,1.3-1.24-1.02,6.41-3.05,3.9-5.2-2.2-1.88-11.8,4.75-6.48-2.99.66-.96,2.26-.95,2.35-1.12.26-.42-1.83-6.26-.48-9.65,1.02-2.56,11.02-9.67,12.44-8.41v.03ZM122.45,153.77c1.43-.91,2.16-7.43-.43-7.59-.38-.03-4.95,3.57-7.18,2.59,3.53,7.6-1.4,3.64-1.28,4.54.27,2.16,7.8,1.15,8.88.46h.01Z"/>
        <path class="cls-2" d="M75.73,173.54c.73-1.55-1.59-4.95-1.29-5.2.77-.64,16.28-1.92,16.94-1.3.39.37-3.65,7.52-4,7.78-.43.33-8.4-4.21-10.33-2.57-2.53,2.14,2.49,2.67,2.63,3.42,1.29,6.24-1.8,7.27-7.2,7.61-1.02.07-6.24.03-5.87-1.89,2.79.9,6.96-7.54,6.52-7.82-.38-.25-3.4-.59-5.42-1.76-1.28-.74-5.01-2.89-4.37-4.75,3.9,3.96,8.03,4.24,12.39,6.49h0Z"/>
        <path class="cls-2" d="M107.03,97.92c.39.43.18,7.85-.6,9.26-.55.99-2.58-.01-3.87,1.16-3.68,3.31-6.51,9.87-12.06,13.05-1.75,1-3.61,1.41-5.62,1.29l11.73-11.07c1.1-1.12,7.93-16.47,10.42-13.69Z"/>
        <path class="cls-2" d="M86.6,36.17c1.21,1.23,2.33,1.43,3.78,3.4,1.28,1.75,3.04,8.37,5.55,8.49.61.03,8.84-3.08,11.9-3.45,1.42-.17,5.92-1.26,5.7,1.13l-35.19,6.53c-.56-3.77.73-2.33,3.26-2.57,2.18-.21,9.84-.42,11.07-1.34,2.28-1.72-8.77-12.7-9.1-14.99,1.73-1.21,2.19,1.98,3.01,2.8h.01Z"/>
        <path class="cls-2" d="M79.65,151.37c-3.49-1.72-2.79-9.05-2.66-12.45.07-1.79,1.9-16.1,3.95-13.62,1.17,1.41-1.29,5.11-1.29,5.87v20.21Z"/>
        <path class="cls-2" d="M56.84,54.89c-1.88-.17-6.56-1.15-8.85-1.58-1.46-.27-4.04-2.72-.25-2.37,10.65,3.06,20.53,2.19,31.28,2.65,1.6.07,4.85-.99,4.55,1.3-8.67-.56-18.16.77-26.73,0h0Z"/>
        <path class="cls-2" d="M79.64,118.77c-1.73.34-2.03-2.37-2.26-3.59-1.16-6.31-1.71-12.31-.33-18.58l3.47,9.97-.89,12.19h0Z"/>
        <path class="cls-2" d="M91.76,135.34c1.19,1.08,10.63,4.45,7.43,8.21-1.07,1.26-16.48-12.99-15.62-16.95,3.82,1.3,5.95,6.68,8.19,8.74Z"/>
        <path class="cls-2" d="M14.44,19.71c.29.23,3.44,5.85,4.19,6.17,1.13.48,6.04-1.45,7.57,4.24-4.03,0-12.93-5.15-14.33-8.47-.9-2.14,1.68-2.66,2.57-1.93Z"/>
        <path class="cls-2" d="M93.99,152.69c-.46,1.56-5.67,3.87-6.94,4.24-2.1.61-2.83.09-4.8-.35-.61-3.91.93-2.11,3.19-2.61,2.79-.61,5.65-1.37,8.54-1.28Z"/>
        <path class="cls-2" d="M65.31,181.37c-.26,2.54-6.62,1.3-8.16.99-2.99-.63-6.6-1.99-8.76-4.26l16.92,3.29h0Z"/>
        <path class="cls-2" d="M36.63,54.88c.21.25.21,6.27,0,6.52-.17.21-4.99-1.16-5.21-1.32-.35-.23,2.49-8.57,5.21-5.21h0Z"/>
        <path class="cls-2" d="M106.87,159.02c-.89.61-4.62,1-3.74-1.77l6.49-5.88c.03,1.32-2.42,7.43-2.76,7.65h.01Z"/>
        <path class="cls-2" d="M60.09,21.01l-11.72,3.9c-.57-3.4.52-2.33,2.83-2.97,2.99-.83,5.79-1.26,8.89-.93Z"/>
        <path class="cls-2" d="M107.03,168.32c-2.62,3.14-7.55-4.55-.64-6.52,1.1.68.85,6.27.64,6.52Z"/>
        <path class="cls-2" d="M77.04,124.01c-.25,3.13-11.25,3-11.72,2.59-4.09-3.51,4.71-1.58,5.49-1.62,1.85-.09,4.04-1.51,6.23-.98Z"/>
        <path class="cls-2" d="M41.83,34.03c-.17.21-3.62-1.92-5.2-1.32-.6-2.24,2.71-.57,2.69-2.02-.03-1.54-1.88-3.75-1.38-5.78,2.2.23,4.48,8.42,3.89,9.13h.01Z"/>
        <path class="cls-2" d="M34.45,8.86c.51.93,3.78,1,2.16,5.62-4.02-1.58-4.34-5.27-3.89-9.13,2.2-.37.87,1.93,1.72,3.49h0Z"/>
        <path class="cls-2" d="M114.84,39.25c-2.8-.9-2.18-1.45-1.67-3.56.31-1.34,1.2-5.63,2.99-5.55l-1.3,9.11h-.01Z"/>
        <path class="cls-2" d="M32.72,26.21c.23.22.23,6.28,0,6.51-3.68,3.62-3.68-10.13,0-6.51Z"/>
        <path class="cls-2" d="M109.62,139.62c-2.28.3-1.21-2.95-1.29-4.55-.13-2.82.08-5.67,0-8.49,2.28-.3,1.21,2.95,1.29,4.55.13,2.82-.08,5.67,0,8.49Z"/>
        <polygon class="cls-2" points="122.66 101.83 116.59 94.27 113.56 86.18 120.91 96.42 122.66 101.83"/>
        <path class="cls-2" d="M109.62,95.3c-2.69-.07-.65-9.02,1.3-9.11l-1.3,9.11Z"/>
        <path class="cls-2" d="M82.26,28.82c3.89,3.89-7.51.55-9.11,1.29,0-2.15,8.79-1.62,9.11-1.29Z"/>
        <path class="cls-2" d="M40.54,15.78c-.09-.61-.1-2.52,0-2.61,1.42-1.12,13.68.29,0,2.61.23,1.63,4.95,1.51,2.59,3.91-.29.3-5.67-3.55-7.81-2.62-.21-2.45,3.59-1.02,5.2-1.29h.01Z"/>
        <path class="cls-2" d="M27.5,10.55c-3.55,3.36-3.1-7.35-1.32-5.2.3.35,1.58,4.95,1.32,5.2Z"/>
        <path class="cls-2" d="M24.89,19.71c.59.48-2.24,4.22-3.91.64.05-1.16,3.75-.76,3.91-.64Z"/>
        <path class="cls-2" d="M118.76,50.98c1.42,1.42-1.17,4.02-2.59,2.59s1.17-4.02,2.59-2.59Z"/>
        <path class="cls-2" d="M37.92,19.71l-6.51,3.9c.03-3.47,3.62-5.91,6.51-3.9Z"/>
        <path class="cls-2" d="M57.49,10.55c-1.34,1.07-4.58-2.06-3.91-2.58,1.34-1.07,4.58,2.06,3.91,2.58Z"/>
        <path class="cls-2" d="M63.99,177.45c-.53.66-3.65-2.57-2.58-3.91.53-.66,3.65,2.57,2.58,3.91Z"/>
        <path class="cls-2" d="M109.64,148.78c1.42.64-1.89,2.19-3.9,1.28-1.42-.64,1.89-2.19,3.9-1.28Z"/>
        <path class="cls-2" d="M130.48,137.02c-.64,1.42-2.19-1.89-1.28-3.9.64-1.42,2.19,1.89,1.28,3.9Z"/>
        <path class="cls-2" d="M118.76,19.71l-2.59,2.59c-.37-2.72-.13-2.96,2.59-2.59Z"/>
        <path class="cls-2" d="M62.32,13.55c3.36,3.36,6.92,10.56,8.2,15.25l-5.93-10.34-5.15-5.29c-1.46-2.13,2.76.26,2.89.39h-.01Z"/>
        <path class="cls-2" d="M49.66,39.24c-2.72.37-2.96.13-2.59-2.59l2.59,2.59Z"/>
        <path class="cls-2" d="M36.61,28.81c-.61,1.26-2.52-2.58-1.96-3.89,1.16.93,2.7,2.32,1.96,3.89Z"/>
        <path class="cls-2" d="M115.5,142.25c.85.43.85.87,0,1.3v-1.3Z"/>
        <path class="cls-1" d="M12.13,119.89c.57.7,3.62-.83,2.02,4.43-.46,1.5-2.32,5.85-4.89,4.88-.73-5.1.39-8.62,2.62-13.02,2.99-.3-.42,2.88.25,3.7h0Z"/>
        <path class="cls-1" d="M9.24,96.6c-1.88.14-2.33-4.73-2.45-6.01-.42-4.5-.04-9.05-.13-13.53l2.58,19.54h0Z"/>
        <path class="cls-1" d="M11.86,104.44c.14.14.51,3.85-.64,3.9-3.68-2.05-1.37-5.87.64-3.9Z"/>
        <path class="cls-1" d="M23.59,48.39c.26.22-1.9,5.88-3.91,3.9s1.45-5.97,3.91-3.9Z"/>
        <path class="cls-1" d="M122.45,153.77c-1.1.69-8.6,1.71-8.88-.46-.12-.91,4.81,3.06,1.28-4.54,2.23.98,6.81-2.61,7.18-2.59,2.59.16,1.86,6.68.43,7.59h-.01Z"/>
      </g>
    </g>
  </g>
</svg>